<?xml version="1.0" standalone="no"?><!-- Generator: Gravit.io --><svg xmlns="http://www.w3.org/2000/svg" xmlns:xlink="http://www.w3.org/1999/xlink" style="isolation:isolate" viewBox="535.623 183 294.755 294.755" width="294.755" height="294.755"><linearGradient id="_lgradient_0" x1="0.5" y1="0" x2="0.4969436321118028" y2="0.9161150997464772" gradientTransform="matrix(294.755,0,0,294.755,535.623,183)" gradientUnits="userSpaceOnUse"><stop offset="0%" stop-opacity="1" style="stop-color:rgb(250,7,108)"/><stop offset="23.916355945333546%" stop-opacity="1" style="stop-color:rgb(161,18,88)"/><stop offset="100%" stop-opacity="1" style="stop-color:rgb(40,1,35)"/></linearGradient><path d=" M 683 183 C 669.879 215.166 661.911 236.236 647.307 267.447 C 656.26 276.94 667.267 287.955 685.124 300.442 C 665.927 292.544 652.842 284.636 643.061 276.405 C 624.366 315.414 595.058 370.961 535.623 477.755 C 582.323 450.795 618.531 434.159 652.273 427.812 C 650.825 421.59 650.056 414.829 650.112 407.805 L 650.149 406.332 C 650.89 376.406 666.461 353.391 684.906 354.953 C 703.348 356.514 717.708 382.052 716.966 411.984 C 716.824 417.621 716.17 423.037 715.06 428.066 C 748.436 434.596 784.299 451.154 830.377 477.755 C 821.291 461.028 813.153 445.954 805.406 431.589 C 793.206 422.133 780.485 409.832 754.529 396.509 C 772.371 401.147 785.155 406.507 795.112 412.485 C 716.368 265.868 710.002 246.372 683 183 L 683 183 L 683 183 Z " fill="url(#_lgradient_0)"/></svg>