<svg xmlns="http://www.w3.org/2000/svg" xmlns:xlink="http://www.w3.org/1999/xlink" style="isolation:isolate" viewBox="0 0 70.055 70.055" width="70.055" height="70.055"><path d=" M 42.013 35.028 L 68.615 8.426 C 69.532 7.499 70.055 6.246 70.055 4.933 C 70.055 3.621 69.532 2.368 68.615 1.441 C 67.687 0.523 66.434 0 65.122 0 C 63.809 0 62.556 0.523 61.629 1.441 L 35.028 28.042 L 8.426 1.441 C 7.499 0.523 6.246 0 4.933 0 C 3.621 0 2.368 0.523 1.441 1.441 C 0.523 2.368 0 3.621 0 4.933 C 0 6.246 0.523 7.499 1.441 8.426 L 28.042 35.028 L 1.441 61.629 C 0.523 62.556 0 63.809 0 65.122 C 0 66.434 0.523 67.687 1.441 68.615 C 2.368 69.532 3.621 70.055 4.933 70.055 C 6.246 70.055 7.499 69.532 8.426 68.615 L 35.028 42.013 L 61.629 68.615 C 62.556 69.532 63.809 70.055 65.122 70.055 C 66.434 70.055 67.687 69.532 68.615 68.615 C 69.532 67.687 70.055 66.434 70.055 65.122 C 70.055 63.809 69.532 62.556 68.615 61.629 L 42.013 35.028 Z " fill="rgb(0,0,0)"/></svg>
