<svg xmlns="http://www.w3.org/2000/svg" viewBox="0 0 210 360"><defs><style>.cls-1{fill:none;}</style></defs><title>ps-bottom-left-pattern</title><g id="Слой_2" data-name="Слой 2"><g id="PS"><rect class="cls-1" x="180" width="30" height="30"/><circle cx="195" cy="15" r="9"/><rect class="cls-1" x="180" y="30" width="30" height="30"/><circle cx="195" cy="45" r="9"/><rect class="cls-1" x="180" y="60" width="30" height="30"/><circle cx="195" cy="75" r="9"/><rect class="cls-1" x="180" y="90" width="30" height="30"/><circle cx="195" cy="105" r="9"/><rect class="cls-1" x="180" y="120" width="30" height="30"/><circle cx="195" cy="135" r="9"/><rect class="cls-1" x="180" y="150" width="30" height="30"/><circle cx="195" cy="165" r="9"/><rect class="cls-1" x="180" y="180" width="30" height="30"/><circle cx="195" cy="195" r="9"/><rect class="cls-1" x="180" y="210" width="30" height="30"/><circle cx="195" cy="225" r="9"/><rect class="cls-1" x="180" y="240" width="30" height="30"/><circle cx="195" cy="255" r="9"/><rect class="cls-1" x="180" y="270" width="30" height="30"/><circle cx="195" cy="285" r="9"/><rect class="cls-1" x="180" y="300" width="30" height="30"/><circle cx="195" cy="315" r="9"/><rect class="cls-1" x="180" y="330" width="30" height="30"/><circle cx="195" cy="345" r="9"/><rect class="cls-1" x="150" width="30" height="30"/><circle cx="165" cy="15" r="9"/><rect class="cls-1" x="150" y="30" width="30" height="30"/><circle cx="165" cy="45" r="9"/><rect class="cls-1" x="150" y="60" width="30" height="30"/><circle cx="165" cy="75" r="9"/><rect class="cls-1" x="150" y="90" width="30" height="30"/><circle cx="165" cy="105" r="9"/><rect class="cls-1" x="150" y="120" width="30" height="30"/><circle cx="165" cy="135" r="9"/><rect class="cls-1" x="150" y="150" width="30" height="30"/><circle cx="165" cy="165" r="9"/><rect class="cls-1" x="150" y="180" width="30" height="30"/><circle cx="165" cy="195" r="9"/><rect class="cls-1" x="150" y="210" width="30" height="30"/><circle cx="165" cy="225" r="9"/><rect class="cls-1" x="150" y="240" width="30" height="30"/><circle cx="165" cy="255" r="9"/><rect class="cls-1" x="150" y="270" width="30" height="30"/><circle cx="165" cy="285" r="9"/><rect class="cls-1" x="150" y="300" width="30" height="30"/><circle cx="165" cy="315" r="9"/><rect class="cls-1" x="150" y="330" width="30" height="30"/><circle cx="165" cy="345" r="9"/><rect class="cls-1" x="120" width="30" height="30"/><circle cx="135" cy="15" r="9"/><rect class="cls-1" x="120" y="30" width="30" height="30"/><circle cx="135" cy="45" r="9"/><rect class="cls-1" x="120" y="60" width="30" height="30"/><circle cx="135" cy="75" r="9"/><rect class="cls-1" x="120" y="90" width="30" height="30"/><circle cx="135" cy="105" r="9"/><rect class="cls-1" x="120" y="120" width="30" height="30"/><circle cx="135" cy="135" r="9"/><rect class="cls-1" x="120" y="150" width="30" height="30"/><circle cx="135" cy="165" r="9"/><rect class="cls-1" x="120" y="180" width="30" height="30"/><circle cx="135" cy="195" r="9"/><rect class="cls-1" x="120" y="210" width="30" height="30"/><circle cx="135" cy="225" r="9"/><rect class="cls-1" x="120" y="240" width="30" height="30"/><circle cx="135" cy="255" r="9"/><rect class="cls-1" x="120" y="270" width="30" height="30"/><circle cx="135" cy="285" r="9"/><rect class="cls-1" x="120" y="300" width="30" height="30"/><circle cx="135" cy="315" r="9"/><rect class="cls-1" x="120" y="330" width="30" height="30"/><circle cx="135" cy="345" r="9"/><rect class="cls-1" x="90" width="30" height="30"/><circle cx="105" cy="15" r="9"/><rect class="cls-1" x="90" y="30" width="30" height="30"/><circle cx="105" cy="45" r="9"/><rect class="cls-1" x="90" y="60" width="30" height="30"/><circle cx="105" cy="75" r="9"/><rect class="cls-1" x="90" y="90" width="30" height="30"/><circle cx="105" cy="105" r="9"/><rect class="cls-1" x="90" y="120" width="30" height="30"/><circle cx="105" cy="135" r="9"/><rect class="cls-1" x="90" y="150" width="30" height="30"/><circle cx="105" cy="165" r="9"/><rect class="cls-1" x="90" y="180" width="30" height="30"/><circle cx="105" cy="195" r="9"/><rect class="cls-1" x="90" y="210" width="30" height="30"/><circle cx="105" cy="225" r="9"/><rect class="cls-1" x="90" y="240" width="30" height="30"/><circle cx="105" cy="255" r="9"/><rect class="cls-1" x="90" y="270" width="30" height="30"/><circle cx="105" cy="285" r="9"/><rect class="cls-1" x="90" y="300" width="30" height="30"/><circle cx="105" cy="315" r="9"/><rect class="cls-1" x="90" y="330" width="30" height="30"/><circle cx="105" cy="345" r="9"/><rect class="cls-1" x="60" width="30" height="30"/><circle cx="75" cy="15" r="9"/><rect class="cls-1" x="60" y="30" width="30" height="30"/><circle cx="75" cy="45" r="9"/><rect class="cls-1" x="60" y="60" width="30" height="30"/><circle cx="75" cy="75" r="9"/><rect class="cls-1" x="60" y="90" width="30" height="30"/><circle cx="75" cy="105" r="9"/><rect class="cls-1" x="60" y="120" width="30" height="30"/><circle cx="75" cy="135" r="9"/><rect class="cls-1" x="60" y="150" width="30" height="30"/><circle cx="75" cy="165" r="9"/><rect class="cls-1" x="60" y="180" width="30" height="30"/><circle cx="75" cy="195" r="9"/><rect class="cls-1" x="60" y="210" width="30" height="30"/><circle cx="75" cy="225" r="9"/><rect class="cls-1" x="60" y="240" width="30" height="30"/><circle cx="75" cy="255" r="9"/><rect class="cls-1" x="60" y="270" width="30" height="30"/><circle cx="75" cy="285" r="9"/><rect class="cls-1" x="60" y="300" width="30" height="30"/><circle cx="75" cy="315" r="9"/><rect class="cls-1" x="60" y="330" width="30" height="30"/><circle cx="75" cy="345" r="9"/><rect class="cls-1" x="30" width="30" height="30"/><circle cx="45" cy="15" r="9"/><rect class="cls-1" x="30" y="30" width="30" height="30"/><circle cx="45" cy="45" r="9"/><rect class="cls-1" x="30" y="60" width="30" height="30"/><circle cx="45" cy="75" r="9"/><rect class="cls-1" x="30" y="90" width="30" height="30"/><circle cx="45" cy="105" r="9"/><rect class="cls-1" x="30" y="120" width="30" height="30"/><circle cx="45" cy="135" r="9"/><rect class="cls-1" x="30" y="150" width="30" height="30"/><circle cx="45" cy="165" r="9"/><rect class="cls-1" x="30" y="180" width="30" height="30"/><circle cx="45" cy="195" r="9"/><rect class="cls-1" x="30" y="210" width="30" height="30"/><circle cx="45" cy="225" r="9"/><rect class="cls-1" x="30" y="240" width="30" height="30"/><circle cx="45" cy="255" r="9"/><rect class="cls-1" x="30" y="270" width="30" height="30"/><circle cx="45" cy="285" r="9"/><rect class="cls-1" x="30" y="300" width="30" height="30"/><circle cx="45" cy="315" r="9"/><rect class="cls-1" x="30" y="330" width="30" height="30"/><circle cx="45" cy="345" r="9"/><rect class="cls-1" width="30" height="30"/><circle cx="15" cy="15" r="9"/><rect class="cls-1" y="30" width="30" height="30"/><circle cx="15" cy="45" r="9"/><rect class="cls-1" y="60" width="30" height="30"/><circle cx="15" cy="75" r="9"/><rect class="cls-1" y="90" width="30" height="30"/><circle cx="15" cy="105" r="9"/><rect class="cls-1" y="120" width="30" height="30"/><circle cx="15" cy="135" r="9"/><rect class="cls-1" y="150" width="30" height="30"/><circle cx="15" cy="165" r="9"/><rect class="cls-1" y="180" width="30" height="30"/><circle cx="15" cy="195" r="9"/><rect class="cls-1" y="210" width="30" height="30"/><circle cx="15" cy="225" r="9"/><rect class="cls-1" y="240" width="30" height="30"/><circle cx="15" cy="255" r="9"/><rect class="cls-1" y="270" width="30" height="30"/><circle cx="15" cy="285" r="9"/><rect class="cls-1" y="300" width="30" height="30"/><circle cx="15" cy="315" r="9"/><rect class="cls-1" y="330" width="30" height="30"/><circle cx="15" cy="345" r="9"/></g></g></svg>