<svg xmlns="http://www.w3.org/2000/svg" xmlns:xlink="http://www.w3.org/1999/xlink" style="isolation:isolate" viewBox="0 0 1520 150">
	<g style="isolation:isolate" id="Clouds">
		<path d=" M 64.829 117.649 L 64.829 116.245 C 64.829 110.825 60.429 106.425 55.009 106.425 L 53.232 106.425 C 47.812 106.425 43.412 102.024 43.412 96.605 L 43.412 94.66 C 43.412 89.24 47.812 84.84 53.232 84.84 L 173.595 84.84 C 179.015 84.84 183.415 89.24 183.415 94.66 L 183.415 96.605 C 183.415 102.024 179.015 106.425 173.595 106.425 L 149.82 106.425 C 144.4 106.425 139.999 110.825 139.999 116.245 L 139.999 117.649 C 139.999 123.069 144.4 127.47 149.82 127.47 L 150.599 127.47 C 156.018 127.47 160.419 131.87 160.419 137.29 L 160.419 139.234 C 160.419 144.654 156.018 149.054 150.599 149.054 L 9.82 149.054 C 4.4 149.054 0 144.654 0 139.234 L 0 137.29 C 0 131.87 4.4 127.47 9.82 127.47 L 55.009 127.47 C 60.429 127.47 64.829 123.069 64.829 117.649 Z " fill="rgb(238,129,200)" style="width: 25vmax; height: 30vmin"/>
		<path d=" M 1419.814 42.298 L 1485.493 42.298 C 1491.51 42.298 1496.396 46.654 1496.396 52.019 L 1496.396 52.019 C 1496.396 57.384 1491.51 61.739 1485.493 61.739 L 1419.814 61.739 C 1413.797 61.739 1408.911 57.384 1408.911 52.019 L 1408.911 52.019 C 1408.911 46.654 1413.797 42.298 1419.814 42.298 Z  M 1465.535 110.667 L 1465.535 110.179 C 1465.535 105.055 1469.694 100.896 1474.817 100.896 L 1477.389 100.896 C 1482.512 100.896 1486.672 96.737 1486.672 91.613 L 1486.672 90.636 C 1486.672 85.513 1482.512 81.353 1477.389 81.353 L 1324.006 81.353 C 1318.883 81.353 1314.723 85.513 1314.723 90.636 L 1314.723 91.613 C 1314.723 96.737 1318.883 100.896 1324.006 100.896 L 1371.11 100.896 C 1376.233 100.896 1380.393 105.055 1380.393 110.179 L 1380.393 110.667 C 1380.393 115.791 1376.233 119.95 1371.11 119.95 L 1361.308 119.95 C 1356.184 119.95 1352.025 124.11 1352.025 129.233 L 1352.025 130.21 C 1352.025 135.333 1356.184 139.493 1361.308 139.493 L 1509.279 139.493 C 1514.403 139.493 1518.562 135.333 1518.562 130.21 L 1518.562 129.233 C 1518.562 124.11 1514.403 119.95 1509.279 119.95 L 1474.817 119.95 C 1469.694 119.95 1465.535 115.791 1465.535 110.667 Z " fill-rule="evenodd" fill="rgb(213,102,174)" />
		<path d=" M 1133.937 19.254 L 1133.937 19.254 C 1128.95 19.254 1124.901 23.724 1124.901 29.229 L 1124.901 29.229 C 1124.901 34.735 1129.861 39.205 1135.969 39.205 L 1218.182 39.205 C 1224.291 39.205 1229.25 34.735 1229.25 29.229 L 1229.25 29.229 C 1229.25 23.724 1224.291 19.254 1218.182 19.254 L 1202.083 19.254 C 1195.974 19.254 1191.015 14.94 1191.015 9.627 L 1191.015 9.627 C 1191.015 4.314 1186.056 0 1179.947 0 L 1154.039 0 C 1147.931 0 1142.972 4.314 1142.972 9.627 L 1142.972 9.627 C 1142.972 14.94 1138.923 19.254 1133.937 19.254 Z " fill="rgb(195,94,160)" /> </g>
</svg>
