<?xml version="1.0" standalone="no"?><!-- Generator: Gravit.io --><svg xmlns="http://www.w3.org/2000/svg" xmlns:xlink="http://www.w3.org/1999/xlink" style="isolation:isolate" viewBox="0 0 832.098 72.779" width="832.098" height="72.779"><g id="MountainFront_Right"><path d=" M 28.997 44.709 L 106.455 12.868 L 158.565 3.754 L 224.889 20.904 L 270.826 3.55 L 354.124 4.27 L 430.909 4.785 L 502.578 10.895 L 564.177 16.012 L 624.816 10.895 L 668.191 11.227 L 737.143 0 L 832.098 26.208 L 832.098 72.779 L 0 72.779 L 28.997 44.709 Z " fill="rgb(249,37,113)"/><path d=" M 39.452 45.366 L 75.439 33.201 L 79.702 37.619 L 84.961 46.576 L 83.965 36.514 L 82.259 31.95 L 110.927 16.969 L 134.053 12.957 L 189.675 23.067 L 222.605 33.73 L 255.44 21.64 L 297.578 9.28 L 317.943 6.846 L 350.66 11.632 L 388.706 15.607 L 427.498 10.49 L 496.93 16.564 L 507.054 18.846 L 514.514 23.631 L 523.04 34.674 L 519.203 22.895 L 516.433 19.141 L 524.372 18.257 L 547.871 20.944 L 582.614 20.944 L 613.999 17.042 L 639.31 18.257 L 665.047 17.852 L 701.921 13.472 L 710.446 17.374 L 726.006 28.343 L 716.841 17.226 L 710.446 11.779 L 732.4 7.399 L 762.294 12.257 L 832.098 32.87 L 832.098 72.779 L 0 72.779 L 39.452 45.366 Z " fill="rgb(20,3,52)"/><path d=" M 56.559 51.602 L 106.345 51.017 L 113.583 40.113 L 144.124 31.876 L 194.79 41.692 L 220.101 47.287 L 244.879 34.809 L 307.691 17.707 L 359.186 26.208 L 440.234 23.668 L 486.539 30.625 L 517.871 39.643 L 539.559 45.79 L 536.202 32.281 L 549.576 30.036 L 617.09 31.14 L 649.487 29.741 L 707.729 33.165 L 741.988 41.866 L 745.359 24.449 L 832.098 45.385 L 832.098 72.779 L 0 72.779 L 56.559 51.602 Z " fill="rgb(12,1,42)"/></g></svg>