<svg xmlns="http://www.w3.org/2000/svg" style="isolation:isolate" viewBox="602.3 188.9 715.5 706.4"><g style="isolation:isolate"><path d="M609.9 469.8c40.4-190.8 230-313.3 423.3-273.4 193.2 39.9 317.3 227.1 276.9 417.9-40.4 190.8-230 313.3-423.3 273.4-193.2-39.9-317.3-227.2-276.9-418z" fill="#842866" fill-opacity=".7"/><path d="M673.2 480.8c33.1-156.2 188.5-256.6 346.8-224 158.2 32.7 259.9 186.1 226.8 342.4-33.1 156.2-188.5 256.6-346.8 224C741.8 790.4 640.1 637 673.2 480.7z" fill="#AD3C74" fill-opacity=".8"/><path d="M736.6 493.9c25.7-121.8 146.8-200 270.1-174.5 123.3 25.5 202.5 145 176.7 266.7-25.7 121.8-146.8 200-270.1 174.5-123.3-25.5-202.5-145-176.7-266.7z" fill="#E05E8A" fill-opacity=".9"/><path d="M796 506.1a167.7 167.7 0 0 1 198.3-128 165.6 165.6 0 0 1 129.8 195.8 167.7 167.7 0 0 1-198.4 128 165.6 165.6 0 0 1-129.8-195.8z" fill="#FFDCE0"/><clipPath id="a"><path d="M796 506.1a167.7 167.7 0 0 1 198.3-128 165.6 165.6 0 0 1 129.8 195.8 167.7 167.7 0 0 1-198.4 128 165.6 165.6 0 0 1-129.8-195.8z" fill="#FFDCE0"/></clipPath><g clip-path="url(#a)"><path d="M702.7 648.5l-19.3-4 3-14.2 19.3 4 2.7-12.5-64.5-13.3 3-14.1 64.5 13.3 2.6-12.5-68.7-14.2 3-14.1L717 581l2.7-12.5-91.4-18.9 3-14.1 91.4 18.8 2.6-12.4-81.7-16.9 3-14.1 81.7 16.8 2.6-12.5-97.7-20.2 3-14.1 97.7 20.2 2.7-12.5-86-17.8 3-14.1 86 17.7 2.6-12.4-77.3-16 3-14.2 77.3 16 2.7-12.5-50.5-10.4 3-14.1 50.5 10.4 2.6-12.7-60.1-12.5 3-14.1 60.1 12.4 2.6-12.2-34.3-7.1 3-14.2L762 368l2.7-12.5-28-5.7 3-14.2 28 5.8 2.8-13.3 200.9 41.4c4.2.9 6.9 4.8 6 8.7-.8 3.9-4.8 6.3-9 5.5l-12.9-2.7c-4.1-.8-8 1.3-8.8 4.7-.8 3.5 2 7 6.2 7.8l12.9 2.7c4.1.8 6.8 4.7 6 8.6-.8 3.9-4.9 6.4-9 5.5l-32-6.6c-4.1-.8-8.1 1.3-8.9 4.7-.7 3.5 2.1 7 6.3 7.8l23.5 4.9c4.1.8 6.9 4.7 6 8.6-.8 3.9-4.9 6.4-9 5.5L899.5 425c-4.2-.8-8.1 1.3-8.9 4.7-.7 3.5 2 7 6.2 7.8l62 12.8c4.2.9 6.9 4.7 6 8.6-.8 4-4.8 6.4-9 5.5l-83.5-17.2c-4.1-.8-8.1 1.3-8.8 4.7-.8 3.5 2 7 6.2 7.8l59 12.2c4.2.8 6.9 4.7 6 8.6-.8 4-4.8 6.4-9 5.5l-85.9-17.7c-4.1-.9-8.1 1.2-8.8 4.7-.8 3.4 2 7 6.2 7.8l70.7 14.6c4.2.8 6.9 4.7 6 8.6-.8 4-4.8 6.4-9 5.5l-48.1-9.9c-4.2-.9-8.2 1.2-8.9 4.7-.7 3.4 2 7 6.2 7.8l79.3 16.4c4.2.8 7 4.7 6 8.6-.7 3.9-4.8 6.4-9 5.5l-91-18.8c-4.2-.9-8.2 1.2-9 4.7-.7 3.4 2.1 7 6.3 7.8l81 16.7c4.1.9 6.9 4.7 6 8.6-.8 4-4.8 6.4-9 5.5l-64.9-13.3c-4.2-1-8.1 1.2-8.9 4.6-.7 3.5 2.1 7 6.3 7.8L923 582c4.2.9 6.9 4.7 6 8.6-.8 4-4.8 6.4-9 5.5l-85.5-17.6c-4.2-.9-8.1 1.2-8.9 4.7-.7 3.4 2 7 6.2 7.8l67.9 14c4.1.8 6.8 4.7 6 8.6-.8 3.9-4.9 6.4-9 5.5l-45.3-9.3c-4.1-.9-8.1 1.2-8.8 4.7-.8 3.4 2 6.9 6.2 7.8l36 7.4c4.1.8 6.8 4.7 6 8.6-.8 4-4.9 6.4-9 5.5l-19-3.9c-4.2-.9-8.2 1.2-9 4.7-.7 3.4 2.1 7 6.3 7.8l52.7 10.9c4.2.8 6.9 4.7 6 8.6-.8 4-4.8 6.4-9 5.5l-7.6-1.5c-4.2-1-8.1 1.2-8.9 4.6-.7 3.5 2.1 7 6.3 7.8l4.2 1c4.2.8 6.9 4.6 6 8.5-.8 4-4.8 6.4-9 5.6L700 661.8l2.8-13.3z" fill="#FFEBF5"/><path d="M1155.4 741.9l19.3 4 3-14.2-19.3-4 2.6-12.4 64.5 13.3 3-14.2-64.5-13.3 2.7-12.5 68.7 14.2 3-14.1-68.8-14.2 2.7-12.5 91.3 18.9 3-14.2-91.3-18.8 2.6-12.5 81.7 16.8 3-14.1-81.7-16.9 2.7-12.5 97.7 20.2 3-14.1-97.7-20.2 2.6-12.5 86 17.8 3-14.2-86-17.7 2.6-12.5 77.4 16 3-14.2-77.4-16 2.7-12.4 50.5 10.4 3-14.2-50.5-10.4 2.7-12.7 60.1 12.4 3-14.1-60.1-12.5 2.6-12.2 34.4 7 3-14-34.4-7.2 2.6-12.4 28 5.7 3-14.1-28-5.8 2.8-13.3-169.7-35c-4.2-.9-8.2 1.6-9 5.5-.9 3.9 1.9 7.8 6 8.6l12.9 2.7c4.1.8 7 4.3 6.2 7.8-.7 3.4-4.7 5.5-8.9 4.6l-17.9-3.6c-4.1-1-8.2 1.6-9 5.5-.9 3.9 1.9 7.7 6 8.6l32 6.6c4.1.9 7 4.3 6.2 7.8-.7 3.4-4.7 5.5-8.9 4.7l-16.8-3.5c-4.1-.8-8.2 1.6-9 5.5-.8 4 1.9 7.8 6 8.7l35 7.2c4.2.8 7 4.3 6.2 7.8-.7 3.4-4.7 5.5-8.8 4.7l-34.1-7c-4.2-1-8.3 1.5-9 5.4-1 4 1.8 7.8 6 8.7l55.6 11.5c4.2.8 7 4.3 6.2 7.8-.7 3.4-4.7 5.5-8.8 4.6l-41.4-8.5c-4.1-.8-8.2 1.6-9 5.5-.8 4 1.9 7.8 6 8.7l41.3 8.5c4.1.8 6.9 4.3 6.2 7.8-.8 3.4-4.7 5.5-8.9 4.6l-51.3-10.5c-4.2-1-8.2 1.6-9 5.5-.9 3.9 1.8 7.7 6 8.6l66.6 13.8c4.2.8 7 4.3 6.3 7.8-.8 3.4-4.7 5.5-8.9 4.6l-50.6-10.4c-4.2-.9-8.2 1.6-9 5.5-.9 4 1.8 7.8 6 8.6l37.1 7.7c4.2.9 7 4.4 6.3 7.8-.8 3.5-4.7 5.6-8.9 4.7l-65-13.4c-4.2-.9-8.2 1.6-9 5.5-.9 3.9 1.9 7.8 6 8.6l52.3 10.8c4.1.9 7 4.4 6.2 7.8-.8 3.5-4.7 5.6-8.9 4.7l-33.7-7c-4.1-.8-8 1.7-8.6 5.6-.6 4 2.3 7.9 6.5 8.8l16.4 3.3c4.1.9 7 4.4 6.2 7.8-.8 3.5-4.7 5.6-8.9 4.7l-11.3-2.3c-4.2-.9-8.2 1.6-9 5.5-.9 4 1.8 7.8 6 8.6l7.3 1.5c4.2 1 7 4.4 6.2 7.8-.7 3.5-4.7 5.6-8.8 4.7l-36-7.4c-4.2-.9-8.2 1.6-9 5.5-.9 4 1.8 7.8 6 8.7l19 3.9c4.2.8 7 4.3 6.2 7.8-.7 3.4-4.7 5.5-8.8 4.7l-11.5-2.4c-4.1-.9-8.2 1.6-9 5.5-.8 4 1.9 7.8 6 8.7l4.3.8c4.1.9 7 4.4 6.2 7.8-.7 3.5-4.7 5.6-8.9 4.7l-4.2-.9c-4.2-.8-8.2 1.6-9 5.6-.9 3.9 1.8 7.7 6 8.6l163 33.6 2.8-13.3z" fill="#FFCDE8"/></g></g></svg>
