<?xml version="1.0" standalone="no"?><!-- Generator: Gravit.io --><svg xmlns="http://www.w3.org/2000/svg" xmlns:xlink="http://www.w3.org/1999/xlink" style="isolation:isolate" viewBox="-66 409 2109 484" width="2109" height="484"><g><path d=" M 2043 893 L 2043 573.5 L 1889.4 504.1 L 1828.2 551.8 L 1776.3 593.6 L 1643.9 538.8 L 1635.6 550.5 L 1499.8 485.5 L 1398.8 524.9 L 1384.7 515.6 L 1274.5 577.9 L 1198.6 548.1 L 1156.8 565.5 L 1094.3 498.1 L 1081.9 509.7 L 1036 471.4 L 958.7 530.4 L 957.2 529.7 L 913.8 542.9 L 873.5 550 L 872.8 550.6 L 872.8 550.6 L 842.3 575.2 L 721.2 525.7 L 701.6 532.1 L 570.9 450.4 L 470.2 510.4 L 450.6 497.2 L 340.4 559.5 L 281.6 495.1 L 232.9 515.2 L 165 443.4 L 146.1 447.4 L 100.1 409 L 53.1 456.8 L 13.1 460.6 L -66 534.3 L -66 893 L 868.3 893" fill="rgb(248,54,73)"/><path d=" M -66 551.5 L 14.7 486.5 L 46.7 485.5 L 99.4 448.2 L 118.6 461.6 L 102 481.7 L 77.1 534.3 L 124.2 480.7 L 150.6 474 L 234.5 533.3 L 188 593.6 L 285.6 526.6 L 315.9 569.7 L 352.1 581.1 L 409.5 542.9 L 427.9 552.4 L 507.8 510.4 L 566.9 482.6 L 596.5 490.3 L 631.7 519.9 L 608.5 542.9 L 592.5 590.7 L 622.9 551.5 L 646.1 531.4 L 717.2 548.6 L 747 573.5 L 786.9 563.9 L 852.7 584 L 895.3 555.3 L 962.1 547.7 L 996.1 527.6 L 1016.9 592.6 L 1011.3 533.3 L 1016.9 503.7 L 1037.6 492.2 L 1063.1 519 L 1094.6 516.1 L 1153.5 585.9 L 1193.5 563 L 1216.7 578.3 L 1295 587.8 L 1332.5 559.1 L 1370.9 554.4 L 1414.9 606 L 1390.9 542.9 L 1503.6 504.6 L 1554.7 545.8 L 1624.3 560.4 L 1653.8 549 L 1764.9 615.6 L 1822.4 586.9 L 1852.8 550.5 L 1901.5 592.6 L 1862.2 533.3 L 1891 513.2 L 2043 585 L 2043 893 L -66 893 L -66 551.5 Z " fill="rgb(97,0,43)"/><path d=" M -66 635.6 L 73.1 567.8 L 133 607 L 213 635.6 L 352 623.2 L 509.2 574 L 538.2 651 L 695.1 595.5 L 943.3 597.4 L 1043.2 657.6 L 1082.4 596.4 L 1276.3 676.8 L 1364.5 627 L 1449.2 658.6 L 1502.8 621.3 L 1669.4 660.5 L 1841.7 639.7 L 1960.8 671.3 L 1960.7 601.2 L 2043 627 L 2043 893 L -66 893 L -66 635.6 Z " fill="rgb(66,11,34)"/></g></svg>