<svg width="410" height="410" viewBox="0 0 410 410" fill="none" xmlns="http://www.w3.org/2000/svg">
<ellipse cx="204.747" cy="204.746" rx="167.772" ry="167.77" transform="rotate(165.351 204.747 204.746)" fill="#FF06A5" fill-opacity="0.24"/>
<circle cx="204.639" cy="204.734" r="148.194" transform="rotate(165.351 204.639 204.734)" fill="#1A0533"/>
<mask id="mask0" mask-type="alpha" maskUnits="userSpaceOnUse" x="23" y="23" width="363" height="363">
<circle cx="204.639" cy="204.734" r="148.194" transform="rotate(165.351 204.639 204.734)" fill="#68A3FB"/>
</mask>
<g mask="url(#mask0)">
<circle cx="168.125" cy="220.315" r="148.194" transform="rotate(165.351 168.125 220.315)" fill="#260A47"/>
</g>
<rect x="214" y="108" width="38.5397" height="4.73214" rx="2.36607" fill="#F46AC2"/>
<rect x="228.197" y="126.929" width="38.5397" height="4.73214" rx="2.36607" fill="#F46AC2"/>
<rect x="214" y="117.464" width="53" height="4.73214" rx="2.36607" fill="#F46AC2"/>
<path fill-rule="evenodd" clip-rule="evenodd" d="M240.764 117.464H223.464C224.771 117.464 225.83 116.405 225.83 115.098C225.83 113.791 224.771 112.732 223.464 112.732H240.764C239.457 112.732 238.398 113.791 238.398 115.098C238.398 116.405 239.457 117.464 240.764 117.464Z" fill="#F46AC2"/>
<path fill-rule="evenodd" clip-rule="evenodd" d="M258.009 126.929H240.5C241.807 126.929 242.866 125.869 242.866 124.562C242.866 123.256 241.807 122.196 240.5 122.196H258.009C256.702 122.196 255.643 123.256 255.643 124.562C255.643 125.869 256.702 126.929 258.009 126.929Z" fill="#F46AC2"/>
<rect x="94" y="226" width="32" height="5" rx="2.5" fill="#F46AC2"/>
<rect x="109" y="216" width="18" height="5" rx="2.5" fill="#F46AC2"/>
<rect width="35.7852" height="3.71794" rx="1.85897" transform="matrix(-1 0 0 1 246.785 287)" fill="#F46AC2"/>
<rect width="35.7852" height="3.71794" rx="1.85897" transform="matrix(-1 0 0 1 259.333 294.436)" fill="#F46AC2"/>
<path fill-rule="evenodd" clip-rule="evenodd" d="M242.603 294.436H227.266C228.293 294.436 229.125 293.604 229.125 292.577C229.125 291.55 228.293 290.718 227.266 290.718H242.603C241.576 290.718 240.744 291.55 240.744 292.577C240.744 293.604 241.576 294.436 242.603 294.436Z" fill="#F46AC2"/>
</svg>
