<svg xmlns="http://www.w3.org/2000/svg" xmlns:xlink="http://www.w3.org/1999/xlink" viewBox="0 0 1136.865 769.748" style="isolation: isolate; width: 100%; height: 100%;"><defs><linearGradient id="_lgradient_26" x1="75%" y1="100%" x2="60%" y2="0%"><stop offset="0%" stop-opacity="0" style="stop-color: rgb(34, 28, 64);"></stop><stop offset="100%" stop-opacity="0.9" style="stop-color: rgb(255, 26, 121);"></stop></linearGradient><linearGradient id="_lgradient_29" x1="50%" y1="15%" x2="50%" y2="100%"><stop offset="0%" stop-opacity="1" style="stop-color: rgb(255, 26, 121);"></stop><stop offset="100%" stop-opacity="1" style="stop-color: rgb(245, 190, 25);"></stop></linearGradient><linearGradient id="_lgradient_32" x1="0%" y1="100%" x2="134%" y2="-21%"><stop offset="0%" stop-opacity="1" style="stop-color: rgb(255, 26, 121);"></stop><stop offset="100%" stop-opacity="1" style="stop-color: rgb(245, 190, 25);"></stop></linearGradient><linearGradient id="_lgradient_33" x1="100%" y1="100%" x2="-21%" y2="-34%"><stop offset="0%" stop-opacity="1" style="stop-color: rgb(255, 26, 121);"></stop><stop offset="100%" stop-opacity="1" style="stop-color: rgb(245, 190, 25);"></stop></linearGradient><linearGradient id="_lgradient_34" x1="0%" y1="100%" x2="134%" y2="-21%"><stop offset="0%" stop-opacity="1" style="stop-color: rgb(255, 26, 121);"></stop><stop offset="100%" stop-opacity="1" style="stop-color: rgb(245, 190, 25);"></stop></linearGradient><linearGradient id="_lgradient_39" x1="52%" y1="95%" x2="50%" y2="0%"><stop offset="0%" stop-opacity="1" style="stop-color: rgb(255, 26, 121);"></stop><stop offset="100%" stop-opacity="1" style="stop-color: rgb(245, 190, 25);"></stop></linearGradient><linearGradient id="_lgradient_36" x1="19%" y1="84%" x2="85%" y2="14%"><stop offset="0%" stop-opacity="1" style="stop-color: rgb(255, 26, 121);"></stop><stop offset="100%" stop-opacity="1" style="stop-color: rgb(245, 190, 25);"></stop></linearGradient><linearGradient id="_lgradient_35" x1="48%" y1="111%" x2="48%" y2="-21%"><stop offset="0%" stop-opacity="1" style="stop-color: rgb(89, 13, 45);"></stop><stop offset="100%" stop-opacity="1" style="stop-color: rgb(157, 11, 67);"></stop></linearGradient><linearGradient id="_lgradient_37" x1="92%" y1="94%" x2="-1%" y2="0%"><stop offset="0%" stop-opacity="1" style="stop-color: rgb(34, 28, 64);"></stop><stop offset="100%" stop-opacity="1" style="stop-color: rgb(157, 11, 67);"></stop></linearGradient><linearGradient id="_lgradient_38" x1="5%" y1="92%" x2="100%" y2="0%"><stop offset="0%" stop-opacity="1" style="stop-color: rgb(34, 28, 64);"></stop><stop offset="100%" stop-opacity="1" style="stop-color: rgb(157, 11, 67);"></stop></linearGradient></defs><g><g><path d="M 572.878 62.5609 L 572.878 62.5609 C 594.289 62.5609 611.672 81.8614 611.672 105.635 L 611.672 435.201 C 611.672 458.974 594.289 478.276 572.878 478.276 L 572.878 478.276 C 551.467 478.276 534.084 458.974 534.084 435.201 L 534.084 105.635 C 534.084 81.8614 551.467 62.5609 572.878 62.5609 Z" style="stroke: none; fill: url(&quot;#_lgradient_26&quot;); stroke-miterlimit: 10; opacity: 0.6;"><animate dur="15s" repeatCount="indefinite" attributeName="d" values="M 572.878 61.037 L 572.878 61.037 C 594.289 61.037 611.672 80.374 611.672 104.193 L 611.672 435.09 C 611.672 458.908 594.289 478.246 572.878 478.246 L 572.878 478.246 C 551.467 478.246 534.084 458.908 534.084 435.09 L 534.084 104.193 C 534.084 80.374 551.467 61.037 572.878 61.037 Z;M 572.878 142.709 L 572.878 142.709 C 594.289 142.709 611.672 160.092 611.672 181.503 L 611.672 441.058 C 611.672 462.469 594.289 479.852 572.878 479.852 L 572.878 479.852 C 551.467 479.852 534.084 462.469 534.084 441.058 L 534.084 181.503 C 534.084 160.092 551.467 142.709 572.878 142.709 Z;M 572.878 61.037 L 572.878 61.037 C 594.289 61.037 611.672 80.374 611.672 104.193 L 611.672 435.09 C 611.672 458.908 594.289 478.246 572.878 478.246 L 572.878 478.246 C 551.467 478.246 534.084 458.908 534.084 435.09 L 534.084 104.193 C 534.084 80.374 551.467 61.037 572.878 61.037 Z;" fill="freeze" calcMode="spline" keySplines="0.4 0 0.2 1; 0.4 0 0.2 1"></animate></path><path d="M 725.004 161.063 L 725.004 161.063 C 746.415 161.063 763.798 178.447 763.798 199.858 L 765.272 431.827 C 765.272 453.238 747.889 470.621 726.478 470.621 L 726.478 470.621 C 705.067 470.621 687.684 453.238 687.684 431.827 L 686.21 199.858 C 686.21 178.447 703.593 161.063 725.004 161.063 Z M 573.503 212.616 L 573.503 212.616 C 594.914 212.616 612 229.999 612 251.41 L 612 484.378 C 612 505.789 596.47 523.172 575.059 523.172 L 575.059 523.172 C 553.648 523.172 536 505.789 536 484.378 L 536 251.41 C 536 229.999 552.092 212.616 573.503 212.616 Z M 421.31 301.136 L 421.31 301.136 C 442.722 301.136 460.105 318.519 460.105 339.93 L 459.324 479.588 C 459.324 500.999 441.941 518.383 420.53 518.383 L 420.53 518.383 C 399.119 518.383 381.736 500.999 381.736 479.588 L 382.516 339.93 C 382.516 318.519 399.899 301.136 421.31 301.136 Z" fill-rule="evenodd" fill="url(#_lgradient_26)"><animate dur="15s" repeatCount="indefinite" attributeName="d" values="M 725.004 158.637 L 725.004 158.637 C 746.415 158.637 763.798 176.021 763.798 197.432 L 765.272 431.827 C 765.272 453.238 747.889 470.621 726.478 470.621 L 726.478 470.621 C 705.067 470.621 687.684 453.238 687.684 431.827 L 686.21 197.432 C 686.21 176.021 703.593 158.637 725.004 158.637 Z  M 573.503 211.683 L 573.503 211.683 C 594.914 211.683 612 229.066 612 250.477 L 612 484.378 C 612 505.789 596.47 523.172 575.059 523.172 L 575.059 523.172 C 553.648 523.172 536 505.789 536 484.378 L 536 250.477 C 536 229.066 552.092 211.683 573.503 211.683 Z  M 421.31 303.562 L 421.31 303.562 C 442.722 303.562 460.105 320.945 460.105 342.356 L 459.324 479.588 C 459.324 500.999 441.941 518.383 420.53 518.383 L 420.53 518.383 C 399.119 518.383 381.736 500.999 381.736 479.588 L 382.516 342.356 C 382.516 320.945 399.899 303.562 421.31 303.562 Z;M 725.004 288.637 L 725.004 288.637 C 746.415 288.637 763.798 306.021 763.798 327.432 L 765.272 431.827 C 765.272 453.238 747.889 470.621 726.478 470.621 L 726.478 470.621 C 705.067 470.621 687.684 453.238 687.684 431.827 L 686.21 327.432 C 686.21 306.021 703.593 288.637 725.004 288.637 Z  M 573.503 261.683 L 573.503 261.683 C 594.914 261.683 612 279.066 612 300.477 L 612 484.378 C 612 505.789 596.47 523.172 575.059 523.172 L 575.059 523.172 C 553.648 523.172 536 505.789 536 484.378 L 536 300.477 C 536 279.066 552.092 261.683 573.503 261.683 Z  M 421.31 173.562 L 421.31 173.562 C 442.722 173.562 460.105 190.945 460.105 212.356 L 459.324 479.588 C 459.324 500.999 441.941 518.383 420.53 518.383 L 420.53 518.383 C 399.119 518.383 381.736 500.999 381.736 479.588 L 382.516 212.356 C 382.516 190.945 399.899 173.562 421.31 173.562 Z;M 725.004 158.637 L 725.004 158.637 C 746.415 158.637 763.798 176.021 763.798 197.432 L 765.272 431.827 C 765.272 453.238 747.889 470.621 726.478 470.621 L 726.478 470.621 C 705.067 470.621 687.684 453.238 687.684 431.827 L 686.21 197.432 C 686.21 176.021 703.593 158.637 725.004 158.637 Z  M 573.503 211.683 L 573.503 211.683 C 594.914 211.683 612 229.066 612 250.477 L 612 484.378 C 612 505.789 596.47 523.172 575.059 523.172 L 575.059 523.172 C 553.648 523.172 536 505.789 536 484.378 L 536 250.477 C 536 229.066 552.092 211.683 573.503 211.683 Z  M 421.31 303.562 L 421.31 303.562 C 442.722 303.562 460.105 320.945 460.105 342.356 L 459.324 479.588 C 459.324 500.999 441.941 518.383 420.53 518.383 L 420.53 518.383 C 399.119 518.383 381.736 500.999 381.736 479.588 L 382.516 342.356 C 382.516 320.945 399.899 303.562 421.31 303.562 Z" fill="freeze" calcMode="spline" keySplines="0.4 0 0.2 1; 0.4 0 0.2 1"></animate></path><g ><path d="M 307 505.264 C 307.727 651.362 427.397 769.748 573.664 769.748 C 719.931 769.748 839.273 651.362 840 505.264 L 840 505.264 L 840 302.896 C 840 280.259 822.263 261.882 801.038 261.882 C 779.812 261.882 763 280.259 763 302.896 L 763 360.408 C 763 383.044 746.006 401.422 725.592 401.422 C 705.178 401.422 689 383.044 689 360.408 L 689 142.168 C 689 119.532 671.372 101.154 650.146 101.154 C 628.921 101.154 612 119.532 612 142.168 L 612 396.108 C 612 418.744 594.289 437.122 573.664 437.122 C 553.039 437.122 536 418.744 536 396.108 L 536 261.692 C 536 239.056 518.628 220.678 497.402 220.678 C 476.177 220.678 459 239.056 459 261.692 L 459 436.574 C 459 459.21 443.166 477.588 422.391 477.588 C 401.616 477.588 384 459.21 384 436.574 L 383.661 377.748 C 383.661 355.112 366.428 336.734 345.202 336.734 C 323.977 336.734 307 355.112 307 377.748 L 307 505.264 L 307 505.264 Z" fill="url(#_lgradient_29)"><animate dur="15s" repeatCount="indefinite" attributeName="d" values="M 307 505.264 C 307.727 651.362 427.397 769.748 573.664 769.748 C 719.931 769.748 839.273 651.362 840 505.264 L 840 505.264 L 840 304.389 C 840 281.752 822.263 263.375 801.038 263.375 C 779.812 263.375 763 281.752 763 304.389 L 763 360.408 C 763 383.044 746.006 401.422 725.592 401.422 C 705.178 401.422 689 383.044 689 360.408 L 689 140.116 C 689 117.48 671.372 99.102 650.146 99.102 C 628.921 99.102 612 117.48 612 140.116 L 612 396.108 C 612 418.744 594.289 437.122 573.664 437.122 C 553.039 437.122 536 418.744 536 396.108 L 536 259.975 C 536 237.339 518.628 218.961 497.402 218.961 C 476.177 218.961 459 237.339 459 259.975 L 459 436.574 C 459 459.21 443.166 477.588 422.391 477.588 C 401.616 477.588 384 459.21 384 436.574 L 383.661 378.961 C 383.661 356.325 366.428 337.947 345.202 337.947 C 323.977 337.947 307 356.325 307 378.961 L 307 505.264 L 307 505.264 Z;M 307 505.264 C 307.727 651.362 427.397 769.748 573.664 769.748 C 719.931 769.748 839.273 651.362 840 505.264 L 840 505.264 L 840 224.389 C 840 201.752 822.263 183.375 801.038 183.375 C 779.812 183.375 763 201.752 763 224.389 L 763 360.408 C 763 383.044 746.006 401.422 725.592 401.422 C 705.178 401.422 689 383.044 689 360.408 L 689 250.116 C 689 227.48 671.372 209.102 650.146 209.102 C 628.921 209.102 612 227.48 612 250.116 L 612 396.108 C 612 418.744 594.289 437.122 573.664 437.122 C 553.039 437.122 536 418.744 536 396.108 L 536 351.975 C 536 329.339 518.628 310.961 497.402 310.961 C 476.177 310.961 459 329.339 459 351.975 L 459 436.574 C 459 459.21 443.166 477.588 422.391 477.588 C 401.616 477.588 384 459.21 384 436.574 L 383.661 313.961 C 383.661 291.325 366.428 272.947 345.202 272.947 C 323.977 272.947 307 291.325 307 313.961 L 307 505.264 L 307 505.264 Z;M 307 505.264 C 307.727 651.362 427.397 769.748 573.664 769.748 C 719.931 769.748 839.273 651.362 840 505.264 L 840 505.264 L 840 304.389 C 840 281.752 822.263 263.375 801.038 263.375 C 779.812 263.375 763 281.752 763 304.389 L 763 360.408 C 763 383.044 746.006 401.422 725.592 401.422 C 705.178 401.422 689 383.044 689 360.408 L 689 140.116 C 689 117.48 671.372 99.102 650.146 99.102 C 628.921 99.102 612 117.48 612 140.116 L 612 396.108 C 612 418.744 594.289 437.122 573.664 437.122 C 553.039 437.122 536 418.744 536 396.108 L 536 259.975 C 536 237.339 518.628 218.961 497.402 218.961 C 476.177 218.961 459 237.339 459 259.975 L 459 436.574 C 459 459.21 443.166 477.588 422.391 477.588 C 401.616 477.588 384 459.21 384 436.574 L 383.661 378.961 C 383.661 356.325 366.428 337.947 345.202 337.947 C 323.977 337.947 307 356.325 307 378.961 L 307 505.264 L 307 505.264 Z;" fill="freeze" calcMode="spline" keySplines="0.4 0 0.2 1; 0.4 0 0.2 1"></animate></path><path d="M 345.372 158.396 L 345.372 158.396 C 366.783 158.396 384.166 177.652 384.166 201.37 L 384.166 267.754 C 384.166 291.471 366.783 310.727 345.372 310.727 L 345.372 310.727 C 323.961 310.727 306.578 291.471 306.578 267.754 L 306.578 201.37 C 306.578 177.652 323.961 158.396 345.372 158.396 Z" style="stroke: none; fill: url(&quot;#_lgradient_29&quot;); stroke-miterlimit: 10;"><animate dur="15s" repeatCount="indefinite" attributeName="d" values="M 345.372 159.721 L 345.372 159.721 C 366.783 159.721 384.166 178.977 384.166 202.695 L 384.166 269.079 C 384.166 292.796 366.783 312.052 345.372 312.052 L 345.372 312.052 C 323.961 312.052 306.578 292.796 306.578 269.079 L 306.578 202.695 C 306.578 178.977 323.961 159.721 345.372 159.721 Z;M 345.372 88.721 L 345.372 88.721 C 366.783 88.721 384.166 107.977 384.166 131.695 L 384.166 198.079 C 384.166 221.796 366.783 241.052 345.372 241.052 L 345.372 241.052 C 323.961 241.052 306.578 221.796 306.578 198.079 L 306.578 131.695 C 306.578 107.977 323.961 88.721 345.372 88.721 Z;M 345.372 159.721 L 345.372 159.721 C 366.783 159.721 384.166 178.977 384.166 202.695 L 384.166 269.079 C 384.166 292.796 366.783 312.052 345.372 312.052 L 345.372 312.052 C 323.961 312.052 306.578 292.796 306.578 269.079 L 306.578 202.695 C 306.578 178.977 323.961 159.721 345.372 159.721 Z;" fill="freeze" calcMode="spline" keySplines="0.4 0 0.2 1; 0.4 0 0.2 1"></animate></path><path d="M 333.998 263.865 L 333.998 208.398 M 486.949 387.73 L 486.949 282.195 M 333.974 459.239 L 333.974 382.244" fill-rule="evenodd" fill="none" stroke-width="17" stroke="white" stroke-opacity="0.2" stroke-linejoin="round" stroke-linecap="round" stroke-miterlimit="3"><animate dur="15s" repeatCount="indefinite" attributeName="d" values="M 334 265.556 L 334 209.862 M 487 387.73 L 487 280.945 M 334 460.545 L 334 383.55;M 333.915 174.917 L 333.915 131.414 M 484.265 387.73 L 484.265 347.945 M 332.592 390.545 L 332.592 313.55;M 334 265.556 L 334 209.862 M 487 387.73 L 487 280.945 M 334 460.545 L 334 383.55;" fill="freeze" calcMode="spline" keySplines="0.4 0 0.2 1; 0.4 0 0.2 1"></animate></path></g><g><path d="M 599.756 656.804 C 599.756 671.411 587.896 683.27 573.289 683.27 C 558.681 683.27 546.822 671.411 546.822 656.804" fill="none" stroke-width="10" stroke="hsl(250, 40%, 18%)" stroke-linejoin="miter" stroke-linecap="round" stroke-miterlimit="3"></path><path d=" M 463.125 671.088 C 463.125 656.481 474.984 644.621 489.592 644.621 C 504.199 644.621 516.059 656.481 516.059 671.088 C 516.059 685.696 504.199 697.555 489.592 697.555 C 474.984 697.555 463.125 685.696 463.125 671.088 Z  M 630.519 671.088 C 630.519 656.481 642.378 644.621 656.986 644.621 C 671.593 644.621 683.453 656.481 683.453 671.088 C 683.453 685.696 671.593 697.555 656.986 697.555 C 642.378 697.555 630.519 685.696 630.519 671.088 Z " fill-rule="evenodd" fill="hsl(335, 100%, 55%)" fill-opacity="0.8"></path><path d=" M 598.886 614.022 C 598.886 599.415 610.745 587.555 625.352 587.555 C 639.96 587.555 651.819 599.415 651.819 614.022 C 651.819 628.63 639.96 640.489 625.352 640.489 C 610.745 640.489 598.886 628.63 598.886 614.022 Z  M 494.758 616.422 C 494.758 601.815 506.618 589.956 521.225 589.956 C 535.833 589.956 547.692 601.815 547.692 616.422 C 547.692 631.03 535.833 642.889 521.225 642.889 C 506.618 642.889 494.758 631.03 494.758 616.422 Z " fill-rule="evenodd" fill="hsl(250, 40%, 18%)"></path></g></g><g><path d=" M 1094.952 414.467 L 1079.054 414.467 C 1074.268 414.467 1070.382 418.515 1070.382 423.501 C 1070.382 428.486 1074.268 432.534 1079.054 432.534 L 1094.952 432.534 L 1094.952 449.095 C 1094.952 454.08 1098.838 458.128 1103.624 458.128 C 1108.41 458.128 1112.295 454.08 1112.295 449.095 L 1112.295 432.534 L 1128.194 432.534 C 1132.98 432.534 1136.865 428.486 1136.865 423.501 C 1136.865 418.515 1132.98 414.467 1128.194 414.467 L 1112.295 414.467 L 1112.295 397.906 C 1112.295 392.921 1108.41 388.873 1103.624 388.873 C 1098.838 388.873 1094.952 392.921 1094.952 397.906 L 1094.952 414.467 Z " fill="url(#_lgradient_32)"></path><path d=" M 17.112 498.346 L 6.04 498.346 C 2.706 498.346 0 501.165 0 504.637 C 0 508.109 2.706 510.929 6.04 510.929 L 17.112 510.929 L 17.112 522.463 C 17.112 525.935 19.818 528.754 23.152 528.754 C 26.485 528.754 29.191 525.935 29.191 522.463 L 29.191 510.929 L 40.264 510.929 C 43.597 510.929 46.303 508.109 46.303 504.637 C 46.303 501.165 43.597 498.346 40.264 498.346 L 29.191 498.346 L 29.191 486.812 C 29.191 483.339 26.485 480.52 23.152 480.52 C 19.818 480.52 17.112 483.339 17.112 486.812 L 17.112 498.346 Z " fill="url(#_lgradient_33)"></path><path d=" M 1033.749 745.24 L 1025.772 745.24 C 1023.37 745.24 1021.42 747.271 1021.42 749.773 C 1021.42 752.275 1023.37 754.306 1025.772 754.306 L 1033.749 754.306 L 1033.749 762.616 C 1033.749 765.117 1035.699 767.149 1038.1 767.149 C 1040.502 767.149 1042.452 765.117 1042.452 762.616 L 1042.452 754.306 L 1050.429 754.306 C 1052.831 754.306 1054.781 752.275 1054.781 749.773 C 1054.781 747.271 1052.831 745.24 1050.429 745.24 L 1042.452 745.24 L 1042.452 736.93 C 1042.452 734.428 1040.502 732.397 1038.1 732.397 C 1035.699 732.397 1033.749 734.428 1033.749 736.93 L 1033.749 745.24 Z " fill="url(#_lgradient_34)"></path><path d=" M 803.446 110.513 C 803.446 104.605 808.051 99.808 813.723 99.808 C 819.395 99.808 824 104.605 824 110.513 C 824 116.422 819.395 121.219 813.723 121.219 C 808.051 121.219 803.446 116.422 803.446 110.513 Z " fill="url(#_lgradient_36)"></path><path d=" M 302.594 80.84 L 293.583 80.84 C 290.87 80.84 288.668 83.134 288.668 85.96 C 288.668 88.786 290.87 91.08 293.583 91.08 L 302.594 91.08 L 302.594 100.467 C 302.594 103.293 304.796 105.587 307.509 105.587 C 310.222 105.587 312.424 103.293 312.424 100.467 L 312.424 91.08 L 321.435 91.08 C 324.148 91.08 326.35 88.786 326.35 85.96 C 326.35 83.134 324.148 80.84 321.435 80.84 L 312.424 80.84 L 312.424 71.453 C 312.424 68.628 310.222 66.333 307.509 66.333 C 304.796 66.333 302.594 68.628 302.594 71.453 L 302.594 80.84 Z " fill="url(#_lgradient_35)"></path><path d=" M 125.048 250.066 C 125.048 244.158 129.653 239.361 135.325 239.361 C 140.997 239.361 145.602 244.158 145.602 250.066 C 145.602 255.975 140.997 260.772 135.325 260.772 C 129.653 260.772 125.048 255.975 125.048 250.066 Z " fill="url(#_lgradient_37)"></path><path d=" M 990.712 250.092 C 990.712 242.953 996.276 237.157 1003.129 237.157 C 1009.982 237.157 1015.546 242.953 1015.546 250.092 C 1015.546 257.231 1009.982 263.026 1003.129 263.026 C 996.276 263.026 990.712 257.231 990.712 250.092 Z " fill="url(#_lgradient_38)"></path><path d=" M 125.048 12.934 C 125.048 5.796 130.611 0 137.464 0 C 144.317 0 149.881 5.796 149.881 12.934 C 149.881 20.073 144.317 25.869 137.464 25.869 C 130.611 25.869 125.048 20.073 125.048 12.934 Z" fill="url(#_lgradient_39)"></path></g></g></svg>
