<svg xmlns="http://www.w3.org/2000/svg" xmlns:xlink="http://www.w3.org/1999/xlink" viewBox="-30 -30 380 380" >
  <g style="isolation:isolate">
    <path d=" M 21.379 208.178 C -2.451 128.911 42.556 45.21 121.822 21.379 C 201.089 -2.451 284.79 42.556 308.621 121.822 C 332.451 201.089 287.444 284.79 208.178 308.621 C 128.911 332.451 45.21 287.444 21.379 208.178 Z " fill="#19102e" />
    <path d=" M 171.656 15.164 C 155.246 14.414 138.437 16.385 121.822 21.379 C 42.556 45.21 -2.451 128.911 21.379 208.178 C 42.603 278.774 111.317 322.195 182.092 314.007 C 181.283 309.383 177.24 305.87 172.387 305.879 L 124.176 305.967 C 118.745 305.977 114.329 302.017 114.32 297.13 C 114.311 292.242 118.713 288.266 124.143 288.256 L 156.613 288.197 C 162.043 288.187 166.444 283.77 166.434 278.34 C 166.424 272.91 162.007 268.509 156.577 268.519 L 93.606 268.634 C 88.176 268.644 83.76 264.684 83.751 259.796 C 83.742 254.909 88.143 250.933 93.574 250.923 L 148.673 250.823 C 154.103 250.813 158.504 246.396 158.494 240.966 C 158.484 235.535 154.068 231.135 148.637 231.144 L 65.988 231.295 C 60.558 231.305 56.142 227.345 56.133 222.458 C 56.124 217.57 60.526 213.594 65.956 213.585 L 136.798 213.455 C 142.228 213.446 146.629 209.029 146.619 203.598 C 146.609 198.168 142.192 193.767 136.762 193.777 L 62.968 193.912 C 57.538 193.922 53.122 189.962 53.113 185.074 C 53.104 180.187 57.506 176.211 62.936 176.201 L 160.344 176.024 C 165.774 176.014 170.175 171.597 170.165 166.167 C 170.155 160.736 165.738 156.335 160.308 156.345 L 55.029 156.537 C 49.599 156.547 45.183 152.587 45.174 147.7 C 45.165 142.813 49.566 138.837 54.997 138.827 L 134.694 138.681 C 140.124 138.672 144.525 134.255 144.515 128.824 C 144.505 123.394 140.088 118.993 134.658 119.003 L 88.414 119.087 C 82.984 119.097 78.567 115.138 78.559 110.25 C 78.55 105.363 82.951 101.387 88.382 101.377 L 145.449 102.273 C 150.879 102.263 155.28 97.846 155.27 92.416 C 155.26 86.986 150.843 82.585 145.413 82.595 L 117.863 81.645 C 112.433 81.655 108.017 77.695 108.008 72.808 C 107.999 67.92 112.401 63.944 117.831 63.934 L 149.316 63.877 C 154.747 63.867 159.147 59.45 159.137 54.02 C 159.128 48.59 154.711 44.189 149.28 44.199 L 137.473 44.22 C 132.043 44.23 127.627 40.383 127.619 35.635 C 127.61 30.887 132.012 27.025 137.442 27.015 L 162.04 26.97 C 167.47 26.96 171.871 22.543 171.861 17.113 C 171.86 16.444 171.792 15.792 171.656 15.164 Z " fill="rgba(0,0,0,.8)">
      <animate v-if="animate" dur="5" repeatCount="indefinite" attributeName="d" fill="freeze" calcMode="spline" keySplines="0.4 0 0.2 1; 0.4 0 0.2 1" values="M 171.656 15.164 C 155.246 14.414 138.437 16.385 121.822 21.379 C 42.556 45.21 -2.451 128.911 21.379 208.178 C 42.603 278.774 111.317 322.195 182.092 314.007 C 181.283 309.383 177.24 305.87 172.387 305.879 L 124.176 305.967 C 118.745 305.977 114.329 302.017 114.32 297.13 C 114.311 292.242 118.713 288.266 124.143 288.256 L 156.613 288.197 C 162.043 288.187 166.444 283.77 166.434 278.34 C 166.424 272.91 162.007 268.509 156.577 268.519 L 93.606 268.634 C 88.176 268.644 83.76 264.684 83.751 259.796 C 83.742 254.909 88.143 250.933 93.574 250.923 L 148.673 250.823 C 154.103 250.813 158.504 246.396 158.494 240.966 C 158.484 235.535 154.068 231.135 148.637 231.144 L 65.988 231.295 C 60.558 231.305 56.142 227.345 56.133 222.458 C 56.124 217.57 60.526 213.594 65.956 213.585 L 136.798 213.455 C 142.228 213.446 146.629 209.029 146.619 203.598 C 146.609 198.168 142.192 193.767 136.762 193.777 L 62.968 193.912 C 57.538 193.922 53.122 189.962 53.113 185.074 C 53.104 180.187 57.506 176.211 62.936 176.201 L 160.344 176.024 C 165.774 176.014 170.175 171.597 170.165 166.167 C 170.155 160.736 165.738 156.335 160.308 156.345 L 55.029 156.537 C 49.599 156.547 45.183 152.587 45.174 147.7 C 45.165 142.813 49.566 138.837 54.997 138.827 L 134.694 138.681 C 140.124 138.672 144.525 134.255 144.515 128.824 C 144.505 123.394 140.088 118.993 134.658 119.003 L 88.414 119.087 C 82.984 119.097 78.567 115.138 78.559 110.25 C 78.55 105.363 82.951 101.387 88.382 101.377 L 145.449 102.273 C 150.879 102.263 155.28 97.846 155.27 92.416 C 155.26 86.986 150.843 82.585 145.413 82.595 L 117.863 81.645 C 112.433 81.655 108.017 77.695 108.008 72.808 C 107.999 67.92 112.401 63.944 117.831 63.934 L 149.316 63.877 C 154.747 63.867 159.147 59.45 159.137 54.02 C 159.128 48.59 154.711 44.189 149.28 44.199 L 137.473 44.22 C 132.043 44.23 127.627 40.383 127.619 35.635 C 127.61 30.887 132.012 27.025 137.442 27.015 L 162.04 26.97 C 167.47 26.96 171.871 22.543 171.861 17.113 C 171.86 16.444 171.792 15.792 171.656 15.164 Z;M 171.656 15.164 C 155.246 14.414 138.437 16.385 121.822 21.379 C 42.556 45.21 -2.451 128.911 21.379 208.178 C 42.603 278.774 111.317 322.195 182.092 314.007 C 181.283 309.383 177.24 305.87 172.387 305.879 L 124.176 305.967 C 118.745 305.977 114.329 302.017 114.32 297.13 C 114.311 292.242 118.713 288.266 124.143 288.256 L 136.613 288.197 C 142.043 288.187 146.444 283.77 146.434 278.34 C 146.424 272.91 142.007 268.509 136.577 268.519 L 93.606 268.634 C 88.176 268.644 83.76 264.684 83.751 259.796 C 83.742 254.909 88.143 250.933 93.574 250.923 L 118.673 250.823 C 124.103 250.813 128.504 246.396 128.494 240.966 C 128.484 235.535 124.068 231.135 118.637 231.144 L 65.988 231.295 C 60.558 231.305 56.142 227.345 56.133 222.458 C 56.124 217.57 60.526 213.594 65.956 213.585 L 166.798 213.455 C 172.228 213.446 176.629 209.029 176.619 203.598 C 176.609 198.168 172.192 193.767 166.762 193.777 L 62.968 193.912 C 57.538 193.922 53.122 189.962 53.113 185.074 C 53.104 180.187 57.506 176.211 62.936 176.201 L 150.344 176.024 C 155.774 176.014 160.175 171.597 160.165 166.167 C 160.155 160.736 155.738 156.335 150.308 156.345 L 55.029 156.537 C 49.599 156.547 45.183 152.587 45.174 147.7 C 45.165 142.813 49.566 138.837 54.997 138.827 L 114.694 138.681 C 120.124 138.672 124.525 134.255 124.515 128.824 C 124.505 123.394 120.088 118.993 114.658 119.003 L 88.414 119.087 C 82.984 119.097 78.567 115.138 78.559 110.25 C 78.55 105.363 82.951 101.387 88.382 101.377 L 165.449 102.273 C 170.879 102.263 175.28 97.846 175.27 92.416 C 175.26 86.986 170.843 82.585 165.413 82.595 L 117.863 81.645 C 112.433 81.655 108.017 77.695 108.008 72.808 C 107.999 67.92 112.401 63.944 117.831 63.934 L 179.316 63.877 C 184.747 63.867 189.147 59.45 189.137 54.02 C 189.128 48.59 184.711 44.189 179.28 44.199 L 137.473 44.22 C 132.043 44.23 127.627 40.383 127.619 35.635 C 127.61 30.887 132.012 27.025 137.442 27.015 L 162.04 26.97 C 167.47 26.96 171.871 22.543 171.861 17.113 C 171.86 16.444 171.792 15.792 171.656 15.164 Z;M 171.656 15.164 C 155.246 14.414 138.437 16.385 121.822 21.379 C 42.556 45.21 -2.451 128.911 21.379 208.178 C 42.603 278.774 111.317 322.195 182.092 314.007 C 181.283 309.383 177.24 305.87 172.387 305.879 L 124.176 305.967 C 118.745 305.977 114.329 302.017 114.32 297.13 C 114.311 292.242 118.713 288.266 124.143 288.256 L 156.613 288.197 C 162.043 288.187 166.444 283.77 166.434 278.34 C 166.424 272.91 162.007 268.509 156.577 268.519 L 93.606 268.634 C 88.176 268.644 83.76 264.684 83.751 259.796 C 83.742 254.909 88.143 250.933 93.574 250.923 L 148.673 250.823 C 154.103 250.813 158.504 246.396 158.494 240.966 C 158.484 235.535 154.068 231.135 148.637 231.144 L 65.988 231.295 C 60.558 231.305 56.142 227.345 56.133 222.458 C 56.124 217.57 60.526 213.594 65.956 213.585 L 136.798 213.455 C 142.228 213.446 146.629 209.029 146.619 203.598 C 146.609 198.168 142.192 193.767 136.762 193.777 L 62.968 193.912 C 57.538 193.922 53.122 189.962 53.113 185.074 C 53.104 180.187 57.506 176.211 62.936 176.201 L 160.344 176.024 C 165.774 176.014 170.175 171.597 170.165 166.167 C 170.155 160.736 165.738 156.335 160.308 156.345 L 55.029 156.537 C 49.599 156.547 45.183 152.587 45.174 147.7 C 45.165 142.813 49.566 138.837 54.997 138.827 L 134.694 138.681 C 140.124 138.672 144.525 134.255 144.515 128.824 C 144.505 123.394 140.088 118.993 134.658 119.003 L 88.414 119.087 C 82.984 119.097 78.567 115.138 78.559 110.25 C 78.55 105.363 82.951 101.387 88.382 101.377 L 145.449 102.273 C 150.879 102.263 155.28 97.846 155.27 92.416 C 155.26 86.986 150.843 82.585 145.413 82.595 L 117.863 81.645 C 112.433 81.655 108.017 77.695 108.008 72.808 C 107.999 67.92 112.401 63.944 117.831 63.934 L 149.316 63.877 C 154.747 63.867 159.147 59.45 159.137 54.02 C 159.128 48.59 154.711 44.189 149.28 44.199 L 137.473 44.22 C 132.043 44.23 127.627 40.383 127.619 35.635 C 127.61 30.887 132.012 27.025 137.442 27.015 L 162.04 26.97 C 167.47 26.96 171.871 22.543 171.861 17.113 C 171.86 16.444 171.792 15.792 171.656 15.164 Z;" /> </path>
    </g>
  </svg>
