<svg xmlns="http://www.w3.org/2000/svg" style="isolation:isolate" viewBox="-39 -39 929.341 888.642" width="929.341" height="888.642"><g style="isolation:isolate"><g style="isolation:isolate"><defs><filter id="a" x="-200%" y="-200%" width="400%" height="400%" filterUnits="objectBoundingBox" color-interpolation-filters="sRGB"><feGaussianBlur xmlns="http://www.w3.org/2000/svg" in="SourceGraphic" stdDeviation="42.936"/><feOffset xmlns="http://www.w3.org/2000/svg" result="pf_100_offsetBlur"/><feFlood xmlns="http://www.w3.org/2000/svg" flood-color="#F7DA86" flood-opacity=".7"/><feComposite xmlns="http://www.w3.org/2000/svg" in2="pf_100_offsetBlur" operator="in" result="pf_100_dropShadow"/><feBlend xmlns="http://www.w3.org/2000/svg" in="SourceGraphic" in2="pf_100_dropShadow"/></filter></defs><path d="M602.796 611.864c14.753-42.22 61.007-64.52 103.227-49.767 42.22 14.752 64.52 61.007 49.767 103.227-14.753 42.22-61.007 64.52-103.227 49.767-42.22-14.753-64.52-61.007-49.767-103.227z" fill="#F7B981" filter="url(#a)"/><path d="M733.162 577.991c-32.37-28.727-82.007-26.959-112.229 4.543-28.892 30.117-29.895 76.837-3.671 108.105 1.961-.439 4.578.307 6.986 2.047l3.94 3.78c3.656 3.507 8.358 4.548 10.493 2.322 2.136-2.226.901-6.881-2.755-10.388l-10.068-9.66c-2.163-3.078-2.632-6.451-.91-8.246 1.562-1.629 4.498-1.509 7.393.046l1.525 1.463c3.656 3.507 8.358 4.547 10.493 2.321 2.136-2.226.901-6.88-2.755-10.387l-2.05-1.968c-1.323-2.606-1.411-5.201.025-6.698 1.683-1.754 4.959-1.48 8.062.432l9.687 9.293c3.656 3.507 8.358 4.548 10.493 2.322 2.136-2.226.901-6.881-2.754-10.388l-3.568-3.423c-2.352-3.159-2.913-6.701-1.133-8.556 1.742-1.816 5.192-1.458 8.389.64l.458.439a14.667 14.667 0 0 0 2.135 1.702l8.691 8.338c3.656 3.508 8.358 4.548 10.494 2.322 2.135-2.226.901-6.881-2.755-10.388l-17.856-17.13c-2.67-3.276-3.389-7.095-1.517-9.047 1.838-1.915 5.574-1.413 8.91.998l3.941 3.78c3.656 3.507 8.357 4.548 10.493 2.322 2.135-2.226.901-6.881-2.755-10.388l-10.069-9.66c-2.162-3.078-2.631-6.451-.909-8.246 1.562-1.628 4.498-1.509 7.392.046l1.526 1.463c3.656 3.507 8.357 4.547 10.493 2.321 2.135-2.226.901-6.88-2.755-10.387l-2.05-1.968c-1.324-2.606-1.411-5.201.025-6.698 1.682-1.754 4.959-1.48 8.062.432l9.687 9.293c3.656 3.507 8.358 4.548 10.493 2.322 2.136-2.226.901-6.881-2.755-10.388l-3.567-3.423c-2.353-3.158-2.914-6.701-1.134-8.556 1.743-1.816 5.193-1.458 8.39.64l.457.439c3.656 3.507 8.358 4.547 10.493 2.321.148-.153.279-.319.389-.499z" fill="#FFD581"/></g><g style="isolation:isolate"><g style="isolation:isolate"><defs><filter id="b" x="-200%" y="-200%" width="400%" height="400%" filterUnits="objectBoundingBox" color-interpolation-filters="sRGB"><feGaussianBlur xmlns="http://www.w3.org/2000/svg" in="SourceGraphic" stdDeviation="12.881"/><feOffset xmlns="http://www.w3.org/2000/svg" result="pf_100_offsetBlur"/><feFlood xmlns="http://www.w3.org/2000/svg" flood-color="#574B7D" flood-opacity=".5"/><feComposite xmlns="http://www.w3.org/2000/svg" in2="pf_100_offsetBlur" operator="in" result="pf_100_dropShadow"/><feBlend xmlns="http://www.w3.org/2000/svg" in="SourceGraphic" in2="pf_100_dropShadow"/></filter></defs><g filter="url(#b)"><linearGradient id="c" y1=".5" x2="1" y2=".5" gradientTransform="scale(-769.852 769.852) rotate(-18.498 0 3.57)" gradientUnits="userSpaceOnUse"><stop offset=".87%" stop-color="#6e427b"/><stop offset="98.696%" stop-color="#72407b"/></linearGradient><path d="M750.039 507.126c67.403-201.47-41.443-419.761-242.913-487.165C305.656-47.442 87.365 61.404 19.961 262.874c-67.403 201.47 41.443 419.761 242.913 487.165 201.47 67.403 419.761-41.443 487.165-242.913z" fill="url(#c)"/></g><path d="M725.692 564.249a86.053 86.053 0 0 0-24.314-12.386c-45.411-14.7-94.213 10.234-108.913 55.646-10.278 31.75-1.181 65.158 20.746 87.408 46.008-33.783 84.848-78.014 112.481-130.668z" fill="#F7B981"/><path d="M725.715 564.205c-35.098-25.549-84.612-21.201-114.621 11.563-30.085 32.846-30.003 82.719-1.252 115.435 1.826-.453 4.212.053 6.535 1.382a384.922 384.922 0 0 0 9.716-7.537l-7.373-6.753c-2.383-3.231-2.967-6.819-1.174-8.776 1.627-1.776 4.762-1.721 7.889-.133l1.664 1.523c3.987 3.652 9.029 4.646 11.253 2.218 2.224-2.427.792-7.363-3.195-11.015l-2.237-2.049c-1.476-2.747-1.634-5.514-.138-7.147 1.752-1.913 5.255-1.701 8.612.262l10.293 9.428a335.972 335.972 0 0 0 8.479-8.407c-.047-.048-.098-.095-.149-.142l-3.89-3.563c-2.588-3.313-3.274-7.078-1.421-9.102 1.814-1.98 5.504-1.684 8.967.476l.499.457a15.618 15.618 0 0 0 2.321 1.764l1.769 1.62a382.314 382.314 0 0 0 7.95-8.895l-11.657-10.677c-2.93-3.429-3.791-7.487-1.841-9.616 1.913-2.089 5.912-1.645 9.531.845l4.298 3.936c3.312 3.035 7.353 4.234 9.899 3.158.772-.942 1.527-1.901 2.283-2.858.547-2.605-1.009-6.243-4.124-9.097l-10.982-10.058c-2.383-3.231-2.966-6.819-1.174-8.776 1.627-1.776 4.762-1.721 7.889-.134l1.664 1.524c3.987 3.652 9.029 4.646 11.253 2.218s.792-7.364-3.195-11.015l-2.237-2.049c-1.476-2.748-1.633-5.514-.138-7.147 1.752-1.913 5.255-1.701 8.612.261l10.566 9.677c1.327 1.216 2.771 2.137 4.188 2.728a344.54 344.54 0 0 0 5.743-9.483 15.746 15.746 0 0 0-1.874-2.042l-3.89-3.564c-2.588-3.312-3.274-7.078-1.421-9.101 1.814-1.981 5.504-1.684 8.967.476l.499.457c1.267 1.16 2.64 2.052 3.996 2.657a195.079 195.079 0 0 0 2.648-4.929z" fill="#FFD581"/></g><g style="isolation:isolate"><defs><filter id="d" x="-200%" y="-200%" width="400%" height="400%" filterUnits="objectBoundingBox" color-interpolation-filters="sRGB"><feGaussianBlur xmlns="http://www.w3.org/2000/svg" in="SourceGraphic" stdDeviation="10.734"/><feOffset xmlns="http://www.w3.org/2000/svg" result="pf_100_offsetBlur"/><feFlood xmlns="http://www.w3.org/2000/svg" flood-color="#5D44AE" flood-opacity=".4"/><feComposite xmlns="http://www.w3.org/2000/svg" in2="pf_100_offsetBlur" operator="in" result="pf_100_dropShadow"/><feBlend xmlns="http://www.w3.org/2000/svg" in="SourceGraphic" in2="pf_100_dropShadow"/></filter></defs><path d="M703.66 488.522c58.865-175.949-36.193-366.589-212.142-425.454C315.569 4.203 124.929 99.261 66.065 275.21 7.2 451.16 102.257 641.799 278.206 700.664c175.95 58.865 366.589-36.193 425.454-212.142z" fill="#FF1C76" filter="url(#d)"/><path d="M275.521 699.753a5.797 5.797 0 0 1 7.442-4.022l35.447 11.859a5.8 5.8 0 0 0 5.38-3.956 5.798 5.798 0 0 0-2.996-7.066l-49.655-16.613a5.796 5.796 0 0 1-3.657-7.333 5.798 5.798 0 0 1 7.333-3.657l81.161 27.153a5.798 5.798 0 0 0 5.379-3.956 5.797 5.797 0 0 0-2.995-7.066l-51.134-17.107a5.798 5.798 0 0 1-3.657-7.333 5.797 5.797 0 0 1 7.333-3.657l92.166 30.835a5.802 5.802 0 0 0 5.38-3.956 5.8 5.8 0 0 0-2.996-7.067l-71.666-23.976a5.796 5.796 0 0 1-3.656-7.333 5.797 5.797 0 0 1 7.333-3.657l92.165 30.835a5.8 5.8 0 0 0 5.38-3.956 5.798 5.798 0 0 0-2.995-7.066l-53.674-17.957a5.798 5.798 0 0 1-3.657-7.333 5.798 5.798 0 0 1 7.333-3.657l44.759 14.975a5.8 5.8 0 0 0 5.38-3.956 5.8 5.8 0 0 0-2.995-7.067l-84.365-28.224a5.797 5.797 0 0 1-3.656-7.333 5.797 5.797 0 0 1 7.333-3.657l60.843 20.356a5.794 5.794 0 1 0 3.99-9.884l-46.597-15.59a5.797 5.797 0 0 1-3.657-7.333 5.796 5.796 0 0 1 7.333-3.656l106.557 35.649a5.8 5.8 0 0 0 5.38-3.956 5.798 5.798 0 0 0-2.996-7.066l-66.586-22.277a5.798 5.798 0 0 1-3.657-7.334 5.797 5.797 0 0 1 7.333-3.656l59.151 19.789a5.8 5.8 0 0 0 5.379-3.956 5.797 5.797 0 0 0-2.995-7.066l-79.917-26.737a5.797 5.797 0 0 1-3.657-7.333 5.797 5.797 0 0 1 7.334-3.656l94.705 31.684a5.8 5.8 0 0 0 5.38-3.956 5.798 5.798 0 0 0-2.996-7.066l-65.74-21.994a5.798 5.798 0 0 1-3.657-7.333 5.798 5.798 0 0 1 7.334-3.657l52.377 17.523a5.798 5.798 0 0 0 5.38-3.955 5.799 5.799 0 0 0-2.996-7.067l-40.975-13.708a5.797 5.797 0 0 1-3.656-7.334 5.796 5.796 0 0 1 7.333-3.656l102.324 34.233a5.8 5.8 0 0 0 5.38-3.956 5.798 5.798 0 0 0-2.996-7.066l-127.538-42.669a5.797 5.797 0 0 1-3.657-7.333 5.797 5.797 0 0 1 7.334-3.656l66.769 22.338a5.802 5.802 0 0 0 5.38-3.956 5.798 5.798 0 0 0-2.996-7.066l-62.986-21.073a5.796 5.796 0 0 1-3.656-7.333 5.796 5.796 0 0 1 7.333-3.656l108.25 36.215a5.8 5.8 0 0 0 5.38-3.956 5.799 5.799 0 0 0-2.996-7.066l-131.771-44.085a5.796 5.796 0 0 1-3.656-7.333 5.796 5.796 0 0 1 7.333-3.656l63.383 21.205a5.8 5.8 0 0 0 5.38-3.956 5.799 5.799 0 0 0-1.765-6.273l-72.314-24.193a5.797 5.797 0 0 1-3.656-7.333 5.797 5.797 0 0 1 7.333-3.657l98.091 32.817a5.8 5.8 0 0 0 5.38-3.956 5.798 5.798 0 0 0-2.995-7.066l-54.735-18.312a5.796 5.796 0 0 1-3.657-7.333 5.798 5.798 0 0 1 7.333-3.657l65.923 22.055a5.8 5.8 0 0 0 5.38-3.956 5.798 5.798 0 0 0-2.996-7.066l-87.536-29.286a5.796 5.796 0 0 1-3.656-7.333 5.796 5.796 0 0 1 7.333-3.656l110.79 37.065a5.8 5.8 0 0 0 5.379-3.956 5.797 5.797 0 0 0-2.995-7.066l-75.899-25.392a5.798 5.798 0 0 1-3.657-7.334 5.798 5.798 0 0 1 7.334-3.656l53.224 17.806a5.798 5.798 0 0 0 5.38-3.955 5.799 5.799 0 0 0-2.996-7.067l-68.065-22.771a5.797 5.797 0 0 1-3.656-7.333 5.796 5.796 0 0 1 7.333-3.657l48.145 16.107a5.8 5.8 0 0 0 5.38-3.955 5.799 5.799 0 0 0-2.996-7.067l-53.888-18.029a5.796 5.796 0 0 1-3.657-7.333 5.797 5.797 0 0 1 7.333-3.656l44.759 14.974a5.8 5.8 0 0 0 5.38-3.956 5.798 5.798 0 0 0-2.995-7.066l-44.362-14.842c-3.033-1.014-5.518-4.583-4.503-7.616a5.796 5.796 0 0 1 7.333-3.656l50.685 16.956a5.797 5.797 0 0 0 5.379-3.955 5.799 5.799 0 0 0-2.995-7.067l-75.052-25.109a5.796 5.796 0 0 1-3.657-7.333 5.798 5.798 0 0 1 7.333-3.657l54.918 18.373a5.8 5.8 0 0 0 5.38-3.955 5.8 5.8 0 0 0-1.39-5.929l-87.232-29.184a5.797 5.797 0 0 1-3.657-7.333 5.798 5.798 0 0 1 7.334-3.656l76.081 25.453a5.798 5.798 0 0 0 5.379-3.956 5.797 5.797 0 0 0-2.995-7.066l-36.111-12.081a5.798 5.798 0 0 1-3.657-7.333 5.798 5.798 0 0 1 7.333-3.657l43.066 14.408a5.8 5.8 0 0 0 5.38-3.956 5.798 5.798 0 0 0-2.995-7.066l-76.531-25.604a5.797 5.797 0 0 1-3.657-7.333 5.797 5.797 0 0 1 7.334-3.656l55.764 18.656a5.798 5.798 0 0 0 5.379-3.956 5.797 5.797 0 0 0-2.995-7.066l-39.497-13.215a5.796 5.796 0 0 1-3.657-7.333 5.797 5.797 0 0 1 7.333-3.656l26.982 9.027a5.802 5.802 0 0 0 5.38-3.956 5.8 5.8 0 0 0-2.996-7.067l-34.203-11.442a5.798 5.798 0 0 1-3.657-7.334 5.797 5.797 0 0 1 7.333-3.656l77.775 26.02a5.798 5.798 0 0 0 5.379-3.956 5.797 5.797 0 0 0-2.995-7.066l-55.582-18.596a5.796 5.796 0 0 1-3.656-7.333 5.796 5.796 0 0 1 7.333-3.656l32.061 10.726a5.798 5.798 0 0 0 5.379-3.956 5.797 5.797 0 0 0-2.995-7.066l-73.144-24.471a5.797 5.797 0 0 1-3.657-7.333 5.796 5.796 0 0 1 7.333-3.657l47.299 15.824a5.8 5.8 0 0 0 5.38-3.956 5.798 5.798 0 0 0-2.996-7.066l-41.19-13.781a5.796 5.796 0 0 1-3.657-7.333 5.797 5.797 0 0 1 7.333-3.656l31.243 10.452c1.758-.035 1.429-1.541 1.47-3.293 149.174 72.842 225.04 246.915 170.952 408.586-58.865 175.949-249.504 271.007-425.453 212.142-.898-.3-1.793-.604-2.686-.911z" fill="#F50075"/><path d="M554.055 90.372l-3.18-1.064a5.797 5.797 0 0 0-7.333 3.656q-1.015 3.033 3.657 7.334 6.478 1.676 26.134 8.743a5.8 5.8 0 0 1 1.917 6.397 5.8 5.8 0 0 1-6.645 3.841l-23.413-7.833a5.796 5.796 0 0 0-7.333 3.657 5.797 5.797 0 0 0 3.656 7.333l66.77 22.338a5.8 5.8 0 0 1 1.916 6.397 5.799 5.799 0 0 1-6.645 3.841l-20.658-6.912a5.798 5.798 0 0 0-7.334 3.657 5.798 5.798 0 0 0 3.657 7.333l54.071 18.09a5.8 5.8 0 0 1 1.916 6.396 5.798 5.798 0 0 1-6.645 3.842l-64.893-21.711a5.796 5.796 0 0 0-7.333 3.656 5.797 5.797 0 0 0 3.656 7.334l68.462 22.904a5.8 5.8 0 0 1 1.917 6.397 5.8 5.8 0 0 1-6.645 3.841l-87.536-29.286a5.798 5.798 0 0 0-7.333 3.657 5.796 5.796 0 0 0 3.657 7.333l128.567 43.013a5.8 5.8 0 0 1 1.916 6.397 5.8 5.8 0 0 1-6.645 3.841l-71.666-23.976a5.796 5.796 0 0 0-7.333 3.656 5.796 5.796 0 0 0 3.656 7.333l92.166 30.835a5.8 5.8 0 0 1 1.916 6.397 5.799 5.799 0 0 1-6.645 3.841l-129.016-43.164a5.797 5.797 0 0 0-7.333 3.657 5.796 5.796 0 0 0 3.657 7.333l120.101 40.181a5.8 5.8 0 0 1 1.916 6.397 5.798 5.798 0 0 1-6.644 3.841l-75.899-25.393a5.798 5.798 0 0 0-7.334 3.657 5.798 5.798 0 0 0 3.657 7.333l52.378 17.523a5.8 5.8 0 0 1 1.916 6.397 5.793 5.793 0 0 1-4.677 3.898l-72.841-24.369a5.798 5.798 0 0 0-7.333 3.657 5.797 5.797 0 0 0 3.657 7.333l132.799 44.429a5.8 5.8 0 0 1 1.917 6.397 5.8 5.8 0 0 1-6.645 3.841l-158.86-53.148a5.798 5.798 0 0 0-7.334 3.656 5.798 5.798 0 0 0 3.657 7.334l112.483 37.631a5.8 5.8 0 0 1 1.916 6.397 5.798 5.798 0 0 1-6.645 3.841l-46.055-15.408a5.798 5.798 0 0 0-7.333 3.657 5.797 5.797 0 0 0 3.657 7.333l99.784 33.384a5.799 5.799 0 0 1 1.916 6.396 5.796 5.796 0 0 1-6.644 3.841L532.34 346.941a5.797 5.797 0 0 0-7.333 3.656 5.796 5.796 0 0 0 3.657 7.333l109.096 36.499a5.8 5.8 0 0 1 1.916 6.397 5.797 5.797 0 0 1-6.645 3.841l-73.99-24.754a5.797 5.797 0 0 0-7.333 3.657 5.796 5.796 0 0 0 3.656 7.333L674.619 430.8a5.8 5.8 0 0 1 1.916 6.397 5.797 5.797 0 0 1-6.644 3.841l-163.093-54.564a5.798 5.798 0 0 0-7.334 3.657 5.797 5.797 0 0 0 3.657 7.333l126.874 42.447a5.799 5.799 0 0 1 1.916 6.396 5.797 5.797 0 0 1-6.645 3.841l-89.228-29.852a5.798 5.798 0 0 0-7.334 3.657 5.797 5.797 0 0 0 3.657 7.333l134.493 44.996a5.799 5.799 0 0 1 1.916 6.396 5.797 5.797 0 0 1-6.645 3.841l-86.904-29.074a5.798 5.798 0 0 0-7.333 3.657 5.798 5.798 0 0 0 3.657 7.333l59.997 20.072a5.8 5.8 0 0 1 1.916 6.397 5.8 5.8 0 0 1-5.184 3.948l-84.166-28.158a5.798 5.798 0 0 0-7.333 3.657 5.797 5.797 0 0 0 3.657 7.333l109.943 36.782a5.8 5.8 0 0 1 1.916 6.397 5.799 5.799 0 0 1-6.645 3.841l-96.216-32.19a5.798 5.798 0 0 0-7.333 3.657 5.797 5.797 0 0 0 3.657 7.333l65.922 22.055a5.8 5.8 0 0 1 1.917 6.397 5.8 5.8 0 0 1-6.645 3.841l-119.704-40.048a5.798 5.798 0 0 0-7.334 3.656 5.798 5.798 0 0 0 3.657 7.334l142.958 47.827a5.8 5.8 0 0 1 1.916 6.397 5.798 5.798 0 0 1-6.644 3.841l-108.068-36.155a5.797 5.797 0 0 0-7.333 3.657 5.796 5.796 0 0 0 3.656 7.333l91.319 30.551a5.8 5.8 0 0 1 1.917 6.397 5.799 5.799 0 0 1-6.645 3.841l-106.16-35.516a5.797 5.797 0 0 0-7.333 3.656 5.798 5.798 0 0 0 3.657 7.334l119.255 39.897a5.8 5.8 0 0 1 1.916 6.397 5.799 5.799 0 0 1-6.645 3.841l-145.315-48.616a5.798 5.798 0 0 0-7.334 3.656 5.797 5.797 0 0 0 3.657 7.333l119.255 39.898a5.8 5.8 0 0 1 1.916 6.397 5.798 5.798 0 0 1-6.644 3.841l-79.917-26.737c-3.033-1.014-7.165.341-8.18 3.373a5.798 5.798 0 0 0 3.657 7.334l64.229 21.488a5.799 5.799 0 0 1 1.916 6.397 5.798 5.798 0 0 1-6.644 3.841l-81.825-27.375a5.796 5.796 0 0 0-7.333 3.656 5.798 5.798 0 0 0 3.656 7.334l48.145 16.107a5.8 5.8 0 0 1 1.917 6.397 5.798 5.798 0 0 1-4.677 3.898l-79.614-26.635a5.797 5.797 0 0 0-7.333 3.657 5.798 5.798 0 0 0 3.657 7.333l95.552 31.967a5.8 5.8 0 0 1 1.916 6.397 5.8 5.8 0 0 1-6.645 3.841l-68.28-22.844a5.798 5.798 0 0 0-7.333 3.657 5.796 5.796 0 0 0 3.657 7.333l32.06 10.726a5.801 5.801 0 0 1 1.917 6.397 5.8 5.8 0 0 1-6.645 3.841l-46.055-15.408a5.797 5.797 0 0 0-7.333 3.657 5.797 5.797 0 0 0 3.656 7.333l27.828 9.31a5.8 5.8 0 0 1 1.917 6.397 5.8 5.8 0 0 1-6.645 3.841l-42.884-14.347a5.797 5.797 0 0 0-7.333 3.656 5.798 5.798 0 0 0 3.657 7.334l17.669 5.911a5.799 5.799 0 0 1 1.916 6.397 5.798 5.798 0 0 1-6.644 3.841l-28.278-9.461a5.798 5.798 0 0 0-7.333 3.657 5.797 5.797 0 0 0 3.657 7.333l10.099 3.379c141.184.634 273.167-88.45 320.38-229.571 51.36-153.517-14.456-318.216-148.94-396.816z" fill="#E00873"/><path d="M412.749 46.789a5.64 5.64 0 0 0-1.521 2.365 5.798 5.798 0 0 0 2.996 7.066l8.175 2.735a5.798 5.798 0 0 1 3.657 7.333c-1.015 3.033-5.147 4.388-8.18 3.374l-37.14-12.426a5.8 5.8 0 0 0-5.38 3.956 5.798 5.798 0 0 0 2.996 7.066l24.891 8.328a5.797 5.797 0 0 1 3.656 7.333 5.797 5.797 0 0 1-7.333 3.657l-41.373-13.842a5.798 5.798 0 0 0-5.379 3.956 5.797 5.797 0 0 0 2.995 7.066l37.804 12.648a5.796 5.796 0 0 1 3.657 7.333 5.798 5.798 0 0 1-7.333 3.657l-45.606-15.258a5.8 5.8 0 0 0-5.38 3.956 5.798 5.798 0 0 0 2.996 7.066l64.679 21.639a5.796 5.796 0 0 1 3.656 7.333 5.796 5.796 0 0 1-7.333 3.656l-86.24-28.852a5.8 5.8 0 0 0-5.379 3.956 5.799 5.799 0 0 0 2.995 7.067l29.339 9.815a5.798 5.798 0 0 1 3.657 7.333 5.798 5.798 0 0 1-7.334 3.657l-49.838-16.674a5.8 5.8 0 0 0-5.38 3.956 5.798 5.798 0 0 0 2.996 7.066l86.689 29.003a5.797 5.797 0 0 1 3.657 7.333 5.798 5.798 0 0 1-7.334 3.656l-77.774-26.02a5.802 5.802 0 0 0-5.38 3.956 5.8 5.8 0 0 0 2.996 7.067l33.571 11.231a5.797 5.797 0 0 1 3.657 7.333 5.798 5.798 0 0 1-7.333 3.657l-52.378-17.524a5.796 5.796 0 1 0-3.99 9.884l72.84 24.37a5.796 5.796 0 0 1 3.657 7.333 5.796 5.796 0 0 1-7.333 3.656l-98.092-32.817a5.8 5.8 0 0 0-5.38 3.956 5.799 5.799 0 0 0 2.996 7.066l80.978 27.092a5.798 5.798 0 0 1 3.657 7.333 5.798 5.798 0 0 1-7.333 3.657l-69.309-23.188a5.8 5.8 0 0 0-5.38 3.956 5.798 5.798 0 0 0 2.995 7.066l46.055 15.408a5.797 5.797 0 0 1 3.657 7.333 5.798 5.798 0 0 1-7.333 3.657l-65.076-21.772a5.8 5.8 0 0 0-5.38 3.956 5.8 5.8 0 0 0 2.995 7.067l36.112 12.081a5.796 5.796 0 0 1 3.656 7.333 5.796 5.796 0 0 1-7.333 3.656l-48.992-16.39a5.8 5.8 0 0 0-5.38 3.956 5.799 5.799 0 0 0 2.996 7.066l73.991 24.754a5.796 5.796 0 0 1 3.656 7.333 5.797 5.797 0 0 1-7.333 3.657L176.8 252.842a5.8 5.8 0 0 0-5.379 3.956 5.797 5.797 0 0 0 2.995 7.066l71.666 23.977a5.797 5.797 0 0 1 3.657 7.333 5.798 5.798 0 0 1-7.333 3.657l-66.77-22.339a5.8 5.8 0 0 0-5.379 3.956 5.799 5.799 0 0 0 2.995 7.067l89.229 29.852a5.797 5.797 0 0 1 3.657 7.333 5.797 5.797 0 0 1-7.334 3.656l-103.17-34.516a5.8 5.8 0 0 0-5.38 3.956 5.798 5.798 0 0 0 2.995 7.066l55.582 18.595a5.798 5.798 0 0 1 3.657 7.334 5.797 5.797 0 0 1-7.333 3.656l-59.997-20.072a5.8 5.8 0 0 0-5.38 3.955 5.801 5.801 0 0 0 1.764 6.274l84.166 28.158a5.796 5.796 0 0 1 3.656 7.333 5.796 5.796 0 0 1-7.333 3.656l-78.621-26.303a5.802 5.802 0 0 0-5.38 3.956 5.798 5.798 0 0 0 2.996 7.066l64.894 21.711a5.797 5.797 0 0 1 3.656 7.333 5.797 5.797 0 0 1-7.333 3.657l-65.923-22.055a5.8 5.8 0 0 0-5.379 3.956 5.797 5.797 0 0 0 2.995 7.066l62.986 21.072a5.798 5.798 0 0 1 3.657 7.334 5.798 5.798 0 0 1-7.334 3.656l-54.917-18.373a5.8 5.8 0 0 0-5.38 3.956 5.798 5.798 0 0 0 2.996 7.066l76.745 25.676a5.797 5.797 0 0 1 3.657 7.333 5.797 5.797 0 0 1-7.334 3.656l-91.319-30.551a5.8 5.8 0 0 0-5.38 3.956 5.799 5.799 0 0 0 2.996 7.066l88.382 29.569a5.798 5.798 0 0 1 3.657 7.333 5.798 5.798 0 0 1-7.333 3.657l-78.621-26.303a5.8 5.8 0 0 0-5.38 3.955 5.799 5.799 0 0 0 2.996 7.067l65.74 21.994a5.796 5.796 0 0 1 3.656 7.333 5.796 5.796 0 0 1-7.333 3.656l-62.536-20.922a5.8 5.8 0 0 0-5.38 3.956 5.8 5.8 0 0 0 2.995 7.067l71.452 23.904c3.032 1.015 5.517 4.584 4.503 7.616a5.797 5.797 0 0 1-7.333 3.657l-55.764-18.656a5.8 5.8 0 0 0-5.38 3.956 5.798 5.798 0 0 0 2.995 7.066l81.825 27.375a5.797 5.797 0 0 1 3.657 7.333 5.798 5.798 0 0 1-7.334 3.657l-48.145-16.108a5.8 5.8 0 0 0-5.38 3.956 5.798 5.798 0 0 0 1.39 5.928l79.613 26.635a5.798 5.798 0 0 1 3.657 7.334 5.797 5.797 0 0 1-7.333 3.656l-83.701-28.002a5.797 5.797 0 0 0-5.379 3.955 5.799 5.799 0 0 0 2.995 7.067l56.428 18.878a5.797 5.797 0 0 1 3.657 7.333 5.797 5.797 0 0 1-7.333 3.657l-32.061-10.726a5.8 5.8 0 0 0-5.38 3.955 5.799 5.799 0 0 0 2.996 7.067l46.055 15.408a5.796 5.796 0 0 1 3.656 7.333 5.796 5.796 0 0 1-7.333 3.656l-27.828-9.31a5.802 5.802 0 0 0-5.38 3.956 5.8 5.8 0 0 0 2.996 7.067l42.883 14.347a5.797 5.797 0 0 1 3.657 7.333 5.797 5.797 0 0 1-7.333 3.656l-17.67-5.911a5.8 5.8 0 0 0-5.38 3.956 5.798 5.798 0 0 0 2.996 7.066l28.277 9.46a5.798 5.798 0 0 1 3.657 7.333 5.797 5.797 0 0 1-7.333 3.657l-8.34-2.79c-2.379.048-5.19 1.446-5.988 3.831-.938 2.804-.172 5.558 2.432 6.799l7.636 2.555a5.797 5.797 0 0 1 3.657 7.333 5.687 5.687 0 0 1-2.971 3.356C79.914 591.904 14.942 428.017 66.065 275.21 116.2 125.353 261.925 34.175 412.749 46.789zm13.028 1.356q4.769 1.415.476.059l-.476-.059z" fill-rule="evenodd" fill="#FF5570"/><path d="M124.72 594.752a5.777 5.777 0 0 0 4.308-3.827 5.796 5.796 0 0 0-3.656-7.333l-10.898-3.646a5.8 5.8 0 0 1-1.916-6.397 5.8 5.8 0 0 1 6.645-3.841l7.328 2.452a5.798 5.798 0 0 0 7.334-3.657 5.798 5.798 0 0 0-3.657-7.333l-21.902-7.327a5.8 5.8 0 0 1-1.916-6.397 5.798 5.798 0 0 1 6.645-3.841l7.113 2.38a5.797 5.797 0 0 0 7.333-3.657 5.797 5.797 0 0 0-3.656-7.333l-28.675-9.593a5.8 5.8 0 0 1-1.916-6.397 5.799 5.799 0 0 1 6.645-3.841l5.635 1.885a5.796 5.796 0 0 0 7.333-3.656 5.796 5.796 0 0 0-3.656-7.333l-26.982-9.027a5.8 5.8 0 0 1-1.916-6.397 5.799 5.799 0 0 1 6.645-3.841l60.446 20.223a5.797 5.797 0 0 0 7.333-3.657 5.797 5.797 0 0 0-3.656-7.333l-74.389-24.887a5.8 5.8 0 0 1-1.916-6.397 5.8 5.8 0 0 1 6.645-3.841l33.572 11.232a5.798 5.798 0 0 0 7.333-3.657 5.797 5.797 0 0 0-3.657-7.333l-52.378-17.523a5.8 5.8 0 0 1-1.916-6.397 5.799 5.799 0 0 1 4.677-3.899l72.841 24.37a5.797 5.797 0 0 0 7.333-3.657 5.797 5.797 0 0 0-3.656-7.333l-69.309-23.188a5.798 5.798 0 0 1-1.917-6.396 5.798 5.798 0 0 1 6.645-3.841l52.196 17.462a5.798 5.798 0 0 0 7.333-3.657 5.797 5.797 0 0 0-3.657-7.333l-69.308-23.188a5.798 5.798 0 0 1-1.917-6.396 5.797 5.797 0 0 1 6.645-3.841l46.055 15.407a5.796 5.796 0 0 0 7.333-3.656 5.796 5.796 0 0 0-3.656-7.333l-65.077-21.772A5.8 5.8 0 0 1 55 362.578a5.799 5.799 0 0 1 6.645-3.842l36.111 12.082a5.797 5.797 0 0 0 7.333-3.657 5.796 5.796 0 0 0-3.656-7.333l-22.749-7.611a5.8 5.8 0 0 1-1.916-6.397 5.799 5.799 0 0 1 6.645-3.841l73.99 24.754a5.796 5.796 0 0 0 7.333-3.656 5.796 5.796 0 0 0-3.656-7.333l-87.933-29.419a5.8 5.8 0 0 1-1.916-6.396 5.798 5.798 0 0 1 6.645-3.842l43.73 14.631a5.798 5.798 0 0 0 7.333-3.657 5.796 5.796 0 0 0-3.657-7.333l-38.833-12.992a5.8 5.8 0 0 1-1.916-6.397 5.799 5.799 0 0 1 6.645-3.841l61.292 20.506a5.798 5.798 0 0 0 7.334-3.657 5.798 5.798 0 0 0-3.657-7.333l-75.235-25.17a5.8 5.8 0 0 1-1.916-6.397 5.8 5.8 0 0 1 6.645-3.841l55.582 18.595a5.796 5.796 0 0 0 7.333-3.656 5.797 5.797 0 0 0-3.657-7.333l-59.997-20.073a5.799 5.799 0 0 1-1.916-6.396 5.8 5.8 0 0 1 5.184-3.949l84.166 28.158a5.797 5.797 0 0 0 7.333-3.656 5.796 5.796 0 0 0-3.657-7.333l-63.383-21.206a5.799 5.799 0 0 1-1.916-6.396 5.797 5.797 0 0 1 6.645-3.841l49.656 16.612a5.797 5.797 0 0 0 7.333-3.656 5.796 5.796 0 0 0-3.657-7.333l-50.684-16.957a5.8 5.8 0 0 1-1.917-6.397 5.799 5.799 0 0 1 6.645-3.841l56.213 18.806a5.798 5.798 0 0 0 7.334-3.656 5.797 5.797 0 0 0-3.657-7.333l-51.531-17.24a5.796 5.796 0 0 1 4.728-10.238l64.894 21.71a5.796 5.796 0 0 0 7.333-3.656 5.796 5.796 0 0 0-3.656-7.333l-68.463-22.905a5.8 5.8 0 0 1-1.916-6.397 5.8 5.8 0 0 1 6.645-3.841l65.525 21.922a5.796 5.796 0 0 0 7.333-3.656 5.797 5.797 0 0 0-3.656-7.334l-44.759-14.974a5.8 5.8 0 0 1-1.916-6.397 5.799 5.799 0 0 1 6.645-3.841l31.878 10.665a5.796 5.796 0 0 0 7.333-3.656 5.796 5.796 0 0 0-3.656-7.333l-40.527-13.559c-1.871-1.47-1.867-3.728-1.069-6.113a5.797 5.797 0 0 1 6.644-3.841l48.595 16.257c3.033 1.015 7.165-.34 8.18-3.373a5.797 5.797 0 0 0-3.657-7.333l-32.907-11.01a5.797 5.797 0 0 1-1.916-6.396 5.796 5.796 0 0 1 6.644-3.841l58.968 19.728a5.797 5.797 0 0 0 7.333-3.657 5.797 5.797 0 0 0-3.656-7.333l-48.145-16.107a5.8 5.8 0 0 1-1.917-6.397 5.796 5.796 0 0 1 4.678-3.898l55.909 18.705a5.798 5.798 0 0 0 7.334-3.657 5.797 5.797 0 0 0-3.657-7.333l-19.363-6.478a5.8 5.8 0 0 1-1.916-6.397 5.8 5.8 0 0 1 6.645-3.841l15.794 5.284a5.796 5.796 0 0 0 7.333-3.656 5.798 5.798 0 0 0-3.656-7.334l-12.591-4.212a5.8 5.8 0 0 1-1.916-6.396 5.799 5.799 0 0 1 6.645-3.842l21.505 7.195a5.796 5.796 0 0 0 7.333-3.656 5.798 5.798 0 0 0-3.656-7.334l-12.483-4.176C184.808 92.577 101.526 169.216 66.065 275.21c-37.976 113.51-11.89 233.134 58.655 319.542z" fill="#FF9F7E"/></g></g></g></svg>
