<svg xmlns="http://www.w3.org/2000/svg" xmlns:xlink="http://www.w3.org/1999/xlink" style="isolation:isolate;" viewBox="0 0 500 165" width="500" height="165">
	<g>
		<g>
			<path d=" M 255.292 80.85 C 254.043 80.854 253.032 81.872 253.037 83.122 L 253.04 84.051 C 253.045 85.3 254.063 86.311 255.313 86.306 L 274.944 86.233 C 276.193 86.229 277.204 85.211 277.199 83.961 L 277.196 83.032 C 277.191 81.783 276.173 80.772 274.924 80.777 L 255.292 80.85 L 255.292 80.85 Z  M 251.865 102.481 C 250.36 102.487 249.142 103.714 249.147 105.22 C 249.153 106.725 250.38 107.943 251.885 107.938 L 271.661 107.902 C 273.166 107.896 274.384 106.669 274.379 105.163 C 274.373 103.658 273.146 102.44 271.64 102.445 L 251.865 102.481 L 251.865 102.481 Z  M 286.122 80.842 C 284.616 80.848 283.398 82.075 283.404 83.581 C 283.41 85.086 284.636 86.304 286.142 86.299 L 287.595 86.293 C 289.1 86.288 290.318 85.061 290.313 83.555 C 290.307 82.049 289.08 80.831 287.574 80.837 L 286.122 80.842 L 286.122 80.842 Z  M 249.662 124.39 C 248.156 124.395 246.938 125.622 246.944 127.128 C 246.949 128.634 248.176 129.852 249.682 129.846 L 269.276 129.811 C 270.782 129.805 272 128.578 271.994 127.072 C 271.989 125.567 270.762 124.349 269.256 124.354 L 249.662 124.39 L 249.662 124.39 Z  M 86.496 28.367 C 86.255 28.366 86.01 28.365 85.762 28.366 C 52.837 28.488 26.201 54.084 26.317 85.49 C 26.43 116.091 51.901 140.988 83.664 142.131 L 83.663 142.182 L 84.988 142.165 C 85.385 142.171 85.784 142.174 86.183 142.172 C 86.89 142.169 87.569 142.153 88.222 142.123 L 97.007 142.01 L 97.007 142.01 C 97.014 142.007 97.022 142.005 97.029 142.002 L 193.534 140.334 C 194.974 140.328 198.22 140.191 198.211 137.65 C 198.205 136.06 197.265 134.922 193.744 134.935 L 127.067 135.255 C 125.478 134.737 124.444 133.893 124.44 132.938 C 124.437 131.997 125.433 131.158 126.975 130.626 L 230.023 130.208 C 231.463 130.202 234.04 129.681 233.947 127.627 C 233.94 125.744 233.523 124.43 230.002 124.443 L 134.166 124.834 C 131.98 124.385 130.459 123.391 130.455 122.232 C 130.451 121.094 131.91 120.104 134.029 119.628 L 223.052 119.298 C 224.055 119.295 228.269 119.04 228.26 116.558 C 228.251 114.076 226.552 113.521 223.031 113.534 L 108.645 113.809 C 106.459 113.359 104.938 112.365 104.934 111.206 C 104.931 110.266 105.926 109.427 107.468 108.895 Q 198.676 108.415 241.111 107.963 C 243.593 107.954 244.788 107.008 244.867 105.467 C 244.947 103.927 244.619 102.696 241.097 102.71 L 133.253 103.22 C 131.067 102.77 129.547 101.776 129.542 100.617 C 129.54 99.823 130.249 99.101 131.399 98.575 L 253.083 98.014 C 256.605 98.001 256.972 96.657 256.966 95.066 C 256.96 93.476 256.584 92.236 253.062 92.249 L 151.834 92.468 C 150.208 91.951 149.145 91.097 149.141 90.128 C 149.135 88.579 151.842 87.304 155.237 87.226 Q 291.311 86.685 243.853 86.858 C 247.247 86.781 247.879 85.597 247.874 84.047 C 247.868 82.457 247.266 81.084 243.744 81.097 L 138.618 81.523 C 136.431 81.073 134.911 80.079 134.907 78.92 C 134.903 77.98 135.899 77.141 137.441 76.609 L 264.602 76.101 C 266.042 76.096 268.076 75.071 268.07 73.36 C 268.064 71.648 268.102 70.323 264.58 70.336 L 157.37 70.807 C 155.782 70.288 154.747 69.445 154.744 68.489 C 154.74 67.549 155.736 66.71 157.278 66.178 L 280.726 65.647 C 282.166 65.641 284.129 64.913 284.208 62.944 C 284.286 60.975 284.227 59.869 280.705 59.882 L 124.469 60.386 C 122.283 59.937 120.762 58.942 120.758 57.784 C 120.754 56.646 122.213 55.656 124.332 55.179 L 243.355 54.85 C 245.392 54.822 247.443 53.959 247.522 52.076 C 247.6 50.192 246.855 49.072 243.334 49.085 L 148.948 49.361 C 146.762 48.911 145.241 47.917 145.237 46.758 C 145.234 45.818 146.229 44.978 147.772 44.446 Q 248.98 43.967 258.09 43.686 C 260.058 43.507 262.025 43.072 262.102 41.018 C 262.181 38.963 260.466 38.37 257.882 38.385 L 123.556 38.771 C 121.37 38.322 119.85 37.327 119.846 36.169 C 119.842 35.228 120.838 34.389 122.38 33.857 L 245.663 33.586 C 249.184 33.573 249.952 32.2 249.946 30.609 C 249.94 29.018 249.163 27.808 245.641 27.821 L 86.501 28.188 L 86.496 28.367 Z  M 258.389 48.886 C 256.883 48.892 255.665 50.119 255.671 51.625 C 255.677 53.13 256.904 54.348 258.409 54.343 L 275.57 54.279 C 277.076 54.274 278.294 53.047 278.288 51.541 C 278.283 50.035 277.056 48.817 275.55 48.823 L 258.389 48.886 L 258.389 48.886 Z " fill-rule="evenodd" fill="rgb(255,28,118)">
          <animate dur="10s" repeatCount="indefinite" attributeName="d" values="M 255.292 80.85 C 254.043 80.854 253.032 81.872 253.037 83.122 L 253.04 84.051 C 253.045 85.3 254.063 86.311 255.313 86.306 L 274.944 86.233 C 276.193 86.229 277.204 85.211 277.199 83.961 L 277.196 83.032 C 277.191 81.783 276.173 80.772 274.924 80.777 L 255.292 80.85 L 255.292 80.85 Z  M 251.865 102.481 C 250.36 102.487 249.142 103.714 249.147 105.22 C 249.153 106.725 250.38 107.943 251.885 107.938 L 271.661 107.902 C 273.166 107.896 274.384 106.669 274.379 105.163 C 274.373 103.658 273.146 102.44 271.64 102.445 L 251.865 102.481 L 251.865 102.481 Z  M 286.122 80.842 C 284.616 80.848 283.398 82.075 283.404 83.581 C 283.41 85.086 284.636 86.304 286.142 86.299 L 287.595 86.293 C 289.1 86.288 290.318 85.061 290.313 83.555 C 290.307 82.049 289.08 80.831 287.574 80.837 L 286.122 80.842 L 286.122 80.842 Z  M 249.662 124.39 C 248.156 124.395 246.938 125.622 246.944 127.128 C 246.949 128.634 248.176 129.852 249.682 129.846 L 269.276 129.811 C 270.782 129.805 272 128.578 271.994 127.072 C 271.989 125.567 270.762 124.349 269.256 124.354 L 249.662 124.39 L 249.662 124.39 Z  M 86.496 28.367 C 86.255 28.366 86.01 28.365 85.762 28.366 C 52.837 28.488 26.201 54.084 26.317 85.49 C 26.43 116.091 51.901 140.988 83.664 142.131 L 83.663 142.182 L 84.988 142.165 C 85.385 142.171 85.784 142.174 86.183 142.172 C 86.89 142.169 87.569 142.153 88.222 142.123 L 97.007 142.01 L 97.007 142.01 C 97.014 142.007 97.022 142.005 97.029 142.002 L 193.534 140.334 C 194.974 140.328 198.22 140.191 198.211 137.65 C 198.205 136.06 197.265 134.922 193.744 134.935 L 127.067 135.255 C 125.478 134.737 124.444 133.893 124.44 132.938 C 124.437 131.997 125.433 131.158 126.975 130.626 L 230.023 130.208 C 231.463 130.202 234.04 129.681 233.947 127.627 C 233.94 125.744 233.523 124.43 230.002 124.443 L 134.166 124.834 C 131.98 124.385 130.459 123.391 130.455 122.232 C 130.451 121.094 131.91 120.104 134.029 119.628 L 223.052 119.298 C 224.055 119.295 228.269 119.04 228.26 116.558 C 228.251 114.076 226.552 113.521 223.031 113.534 L 108.645 113.809 C 106.459 113.359 104.938 112.365 104.934 111.206 C 104.931 110.266 105.926 109.427 107.468 108.895 Q 198.676 108.415 241.111 107.963 C 243.593 107.954 244.788 107.008 244.867 105.467 C 244.947 103.927 244.619 102.696 241.097 102.71 L 133.253 103.22 C 131.067 102.77 129.547 101.776 129.542 100.617 C 129.54 99.823 130.249 99.101 131.399 98.575 L 253.083 98.014 C 256.605 98.001 256.972 96.657 256.966 95.066 C 256.96 93.476 256.584 92.236 253.062 92.249 L 151.834 92.468 C 150.208 91.951 149.145 91.097 149.141 90.128 C 149.135 88.579 151.842 87.304 155.237 87.226 Q 291.311 86.685 243.853 86.858 C 247.247 86.781 247.879 85.597 247.874 84.047 C 247.868 82.457 247.266 81.084 243.744 81.097 L 138.618 81.523 C 136.431 81.073 134.911 80.079 134.907 78.92 C 134.903 77.98 135.899 77.141 137.441 76.609 L 264.602 76.101 C 266.042 76.096 268.076 75.071 268.07 73.36 C 268.064 71.648 268.102 70.323 264.58 70.336 L 157.37 70.807 C 155.782 70.288 154.747 69.445 154.744 68.489 C 154.74 67.549 155.736 66.71 157.278 66.178 L 280.726 65.647 C 282.166 65.641 284.129 64.913 284.208 62.944 C 284.286 60.975 284.227 59.869 280.705 59.882 L 124.469 60.386 C 122.283 59.937 120.762 58.942 120.758 57.784 C 120.754 56.646 122.213 55.656 124.332 55.179 L 243.355 54.85 C 245.392 54.822 247.443 53.959 247.522 52.076 C 247.6 50.192 246.855 49.072 243.334 49.085 L 148.948 49.361 C 146.762 48.911 145.241 47.917 145.237 46.758 C 145.234 45.818 146.229 44.978 147.772 44.446 Q 248.98 43.967 258.09 43.686 C 260.058 43.507 262.025 43.072 262.102 41.018 C 262.181 38.963 260.466 38.37 257.882 38.385 L 123.556 38.771 C 121.37 38.322 119.85 37.327 119.846 36.169 C 119.842 35.228 120.838 34.389 122.38 33.857 L 245.663 33.586 C 249.184 33.573 249.952 32.2 249.946 30.609 C 249.94 29.018 249.163 27.808 245.641 27.821 L 86.501 28.188 L 86.496 28.367 Z  M 258.389 48.886 C 256.883 48.892 255.665 50.119 255.671 51.625 C 255.677 53.13 256.904 54.348 258.409 54.343 L 275.57 54.279 C 277.076 54.274 278.294 53.047 278.288 51.541 C 278.283 50.035 277.056 48.817 275.55 48.823 L 258.389 48.886 L 258.389 48.886 Z;M 235.292 80.85 C 234.043 80.854 233.032 81.872 233.037 83.122 L 233.04 84.051 C 233.045 85.3 234.063 86.311 235.313 86.306 L 254.944 86.233 C 256.193 86.229 257.204 85.211 257.199 83.961 L 257.196 83.032 C 257.191 81.783 256.173 80.772 254.924 80.777 L 235.292 80.85 L 235.292 80.85 Z  M 251.865 102.481 C 250.36 102.487 249.142 103.714 249.147 105.22 C 249.153 106.725 250.38 107.943 251.885 107.938 L 261.661 107.902 C 263.166 107.896 264.384 106.669 264.379 105.163 C 264.373 103.658 263.146 102.44 261.64 102.445 L 251.865 102.481 L 251.865 102.481 Z  M 266.122 80.842 C 264.616 80.848 263.398 82.075 263.404 83.581 C 263.41 85.086 264.636 86.304 266.142 86.299 L 267.595 86.293 C 269.1 86.288 270.318 85.061 270.313 83.555 C 270.307 82.049 269.08 80.831 267.574 80.837 L 266.122 80.842 L 266.122 80.842 Z  M 229.662 124.39 C 228.156 124.395 226.938 125.622 226.944 127.128 C 226.949 128.634 228.176 129.852 229.682 129.846 L 239.276 129.811 C 240.782 129.805 242 128.578 241.994 127.072 C 241.989 125.567 240.762 124.349 239.256 124.354 L 229.662 124.39 L 229.662 124.39 Z  M 86.496 28.367 C 86.255 28.366 86.01 28.365 85.762 28.366 C 52.837 28.488 26.201 54.084 26.317 85.49 C 26.43 116.091 51.901 140.988 83.664 142.131 L 83.663 142.182 L 84.988 142.165 C 85.385 142.171 85.784 142.174 86.183 142.172 C 86.89 142.169 87.569 142.153 88.222 142.123 L 97.007 142.01 L 97.007 142.01 C 97.014 142.007 97.022 142.005 97.029 142.002 L 193.534 140.334 C 194.974 140.328 198.22 140.191 198.211 137.65 C 198.205 136.06 197.265 134.922 193.744 134.935 L 107.067 135.255 C 105.478 134.737 104.444 133.893 104.44 132.938 C 104.437 131.997 105.433 131.158 106.975 130.626 L 220.023 130.208 C 221.463 130.202 224.04 129.681 223.947 127.627 C 223.94 125.744 223.523 124.43 220.002 124.443 L 114.166 124.834 C 111.98 124.385 110.459 123.391 110.455 122.232 C 110.451 121.094 111.91 120.104 114.029 119.628 L 203.052 119.298 C 204.055 119.295 208.269 119.04 208.26 116.558 C 208.251 114.076 206.552 113.521 203.031 113.534 L 128.645 113.809 C 126.459 113.359 124.938 112.365 124.934 111.206 C 124.931 110.266 125.926 109.427 127.468 108.895 Q 198.676 108.415 241.111 107.963 C 243.593 107.954 244.788 107.008 244.867 105.467 C 244.947 103.927 244.619 102.696 241.097 102.71 L 103.253 103.22 C 101.067 102.77 99.547 101.776 99.542 100.617 C 99.54 99.823 100.249 99.101 101.399 98.575 L 253.083 98.014 C 256.605 98.001 256.972 96.657 256.966 95.066 C 256.96 93.476 256.584 92.236 253.062 92.249 L 121.834 92.468 C 120.208 91.951 119.145 91.097 119.141 90.128 C 119.135 88.579 121.842 87.304 125.237 87.226 Q 271.311 86.685 223.853 86.858 C 227.247 86.781 227.879 85.597 227.874 84.047 C 227.868 82.457 227.266 81.084 223.744 81.097 L 108.618 81.523 C 106.431 81.073 104.911 80.079 104.907 78.92 C 104.903 77.98 105.899 77.141 107.441 76.609 L 244.602 76.101 C 246.042 76.096 248.076 75.071 248.07 73.36 C 248.064 71.648 248.102 70.323 244.58 70.336 L 117.37 70.807 C 115.782 70.288 114.747 69.445 114.744 68.489 C 114.74 67.549 115.736 66.71 117.278 66.178 L 260.726 65.647 C 262.166 65.641 264.129 64.913 264.208 62.944 C 264.286 60.975 264.227 59.869 260.705 59.882 L 124.469 60.386 C 122.283 59.937 120.762 58.942 120.758 57.784 C 120.754 56.646 122.213 55.656 124.332 55.179 L 213.355 54.85 C 215.392 54.822 217.443 53.959 217.522 52.076 C 217.6 50.192 216.855 49.072 213.334 49.085 L 138.948 49.361 C 136.762 48.911 135.241 47.917 135.237 46.758 C 135.234 45.818 136.229 44.978 137.772 44.446 Q 208.98 43.967 218.09 43.686 C 220.058 43.507 222.025 43.072 222.102 41.018 C 222.181 38.963 220.466 38.37 217.882 38.385 L 113.556 38.771 C 111.37 38.322 109.85 37.327 109.846 36.169 C 109.842 35.228 110.838 34.389 112.38 33.857 L 185.663 33.586 C 189.184 33.573 189.952 32.2 189.946 30.609 C 189.94 29.018 189.163 27.808 185.641 27.821 L 86.501 28.188 L 86.496 28.367 Z  M 228.389 48.886 C 226.883 48.892 225.665 50.119 225.671 51.625 C 225.677 53.13 226.904 54.348 228.409 54.343 L 245.57 54.279 C 247.076 54.274 248.294 53.047 248.288 51.541 C 248.283 50.035 247.056 48.817 245.55 48.823 L 228.389 48.886 L 228.389 48.886 Z;M 255.292 80.85 C 254.043 80.854 253.032 81.872 253.037 83.122 L 253.04 84.051 C 253.045 85.3 254.063 86.311 255.313 86.306 L 274.944 86.233 C 276.193 86.229 277.204 85.211 277.199 83.961 L 277.196 83.032 C 277.191 81.783 276.173 80.772 274.924 80.777 L 255.292 80.85 L 255.292 80.85 Z  M 251.865 102.481 C 250.36 102.487 249.142 103.714 249.147 105.22 C 249.153 106.725 250.38 107.943 251.885 107.938 L 271.661 107.902 C 273.166 107.896 274.384 106.669 274.379 105.163 C 274.373 103.658 273.146 102.44 271.64 102.445 L 251.865 102.481 L 251.865 102.481 Z  M 286.122 80.842 C 284.616 80.848 283.398 82.075 283.404 83.581 C 283.41 85.086 284.636 86.304 286.142 86.299 L 287.595 86.293 C 289.1 86.288 290.318 85.061 290.313 83.555 C 290.307 82.049 289.08 80.831 287.574 80.837 L 286.122 80.842 L 286.122 80.842 Z  M 249.662 124.39 C 248.156 124.395 246.938 125.622 246.944 127.128 C 246.949 128.634 248.176 129.852 249.682 129.846 L 269.276 129.811 C 270.782 129.805 272 128.578 271.994 127.072 C 271.989 125.567 270.762 124.349 269.256 124.354 L 249.662 124.39 L 249.662 124.39 Z  M 86.496 28.367 C 86.255 28.366 86.01 28.365 85.762 28.366 C 52.837 28.488 26.201 54.084 26.317 85.49 C 26.43 116.091 51.901 140.988 83.664 142.131 L 83.663 142.182 L 84.988 142.165 C 85.385 142.171 85.784 142.174 86.183 142.172 C 86.89 142.169 87.569 142.153 88.222 142.123 L 97.007 142.01 L 97.007 142.01 C 97.014 142.007 97.022 142.005 97.029 142.002 L 193.534 140.334 C 194.974 140.328 198.22 140.191 198.211 137.65 C 198.205 136.06 197.265 134.922 193.744 134.935 L 127.067 135.255 C 125.478 134.737 124.444 133.893 124.44 132.938 C 124.437 131.997 125.433 131.158 126.975 130.626 L 230.023 130.208 C 231.463 130.202 234.04 129.681 233.947 127.627 C 233.94 125.744 233.523 124.43 230.002 124.443 L 134.166 124.834 C 131.98 124.385 130.459 123.391 130.455 122.232 C 130.451 121.094 131.91 120.104 134.029 119.628 L 223.052 119.298 C 224.055 119.295 228.269 119.04 228.26 116.558 C 228.251 114.076 226.552 113.521 223.031 113.534 L 108.645 113.809 C 106.459 113.359 104.938 112.365 104.934 111.206 C 104.931 110.266 105.926 109.427 107.468 108.895 Q 198.676 108.415 241.111 107.963 C 243.593 107.954 244.788 107.008 244.867 105.467 C 244.947 103.927 244.619 102.696 241.097 102.71 L 133.253 103.22 C 131.067 102.77 129.547 101.776 129.542 100.617 C 129.54 99.823 130.249 99.101 131.399 98.575 L 253.083 98.014 C 256.605 98.001 256.972 96.657 256.966 95.066 C 256.96 93.476 256.584 92.236 253.062 92.249 L 151.834 92.468 C 150.208 91.951 149.145 91.097 149.141 90.128 C 149.135 88.579 151.842 87.304 155.237 87.226 Q 291.311 86.685 243.853 86.858 C 247.247 86.781 247.879 85.597 247.874 84.047 C 247.868 82.457 247.266 81.084 243.744 81.097 L 138.618 81.523 C 136.431 81.073 134.911 80.079 134.907 78.92 C 134.903 77.98 135.899 77.141 137.441 76.609 L 264.602 76.101 C 266.042 76.096 268.076 75.071 268.07 73.36 C 268.064 71.648 268.102 70.323 264.58 70.336 L 157.37 70.807 C 155.782 70.288 154.747 69.445 154.744 68.489 C 154.74 67.549 155.736 66.71 157.278 66.178 L 280.726 65.647 C 282.166 65.641 284.129 64.913 284.208 62.944 C 284.286 60.975 284.227 59.869 280.705 59.882 L 124.469 60.386 C 122.283 59.937 120.762 58.942 120.758 57.784 C 120.754 56.646 122.213 55.656 124.332 55.179 L 243.355 54.85 C 245.392 54.822 247.443 53.959 247.522 52.076 C 247.6 50.192 246.855 49.072 243.334 49.085 L 148.948 49.361 C 146.762 48.911 145.241 47.917 145.237 46.758 C 145.234 45.818 146.229 44.978 147.772 44.446 Q 248.98 43.967 258.09 43.686 C 260.058 43.507 262.025 43.072 262.102 41.018 C 262.181 38.963 260.466 38.37 257.882 38.385 L 123.556 38.771 C 121.37 38.322 119.85 37.327 119.846 36.169 C 119.842 35.228 120.838 34.389 122.38 33.857 L 245.663 33.586 C 249.184 33.573 249.952 32.2 249.946 30.609 C 249.94 29.018 249.163 27.808 245.641 27.821 L 86.501 28.188 L 86.496 28.367 Z  M 258.389 48.886 C 256.883 48.892 255.665 50.119 255.671 51.625 C 255.677 53.13 256.904 54.348 258.409 54.343 L 275.57 54.279 C 277.076 54.274 278.294 53.047 278.288 51.541 C 278.283 50.035 277.056 48.817 275.55 48.823 L 258.389 48.886 L 258.389 48.886 Z;" fill="freeze" calcMode="spline" keySplines="0.4 0 0.2 1; 0.4 0 0.2 1"/>
      </path>
			<path d="M 437.502 50.273 L 466.008 50.13 C 473.189 50.104 479.041 55.912 479.067 63.093 L 479.067 63.093 C 479.094 70.274 473.285 76.126 466.104 76.153 L 437.598 76.295 C 430.417 76.322 424.565 70.513 424.539 63.332 L 424.539 63.332 C 424.512 56.151 430.321 50.299 437.502 50.273 Z  M 458.029 96.878 L 486.738 96.846 C 493.919 96.819 499.77 102.628 499.797 109.809 L 499.797 109.809 C 499.824 116.99 494.015 122.841 486.834 122.868 L 458.125 122.9 C 450.944 122.927 445.092 117.118 445.065 109.937 L 445.065 109.937 C 445.039 102.756 450.848 96.904 458.029 96.878 Z  M 419.065 0 L 450.839 0 C 458.02 -0.026 463.872 4.782 463.898 11.964 L 463.898 11.964 C 463.925 19.145 458.116 24.996 450.935 25.023 L 419.161 25.103 C 411.98 25.13 406.128 19.321 406.102 12.14 L 406.102 12.14 C 406.075 4.959 411.884 0.027 419.065 0 Z  M 88.192 165.594 C 39.289 163.953 -3.246 120.518 0.195 76.01 C 3.447 33.959 38.91 0.162 82.866 0 L 371.326 0 Q 373.732 -0.126 374.779 0.232 C 379.977 1.074 384.88 5.126 384.755 11.691 C 384.618 18.904 379.562 24.765 373.837 24.787 L 356.855 24.849 C 351.342 24.87 345.508 29.507 345.538 37.719 C 345.568 45.93 352.373 51.209 357.101 51.191 L 381.806 51.063 C 387.532 51.042 392.203 57.232 392.225 62.958 C 392.246 68.683 387.623 75.687 381.897 75.709 L 372.988 75.742 C 367.971 76.074 363.574 81.441 363.594 86.853 C 363.614 92.265 367.74 97.725 371.752 97.71 L 395.066 97.583 C 400.791 97.562 407.116 101.519 407.15 110.727 C 407.184 119.934 400.883 122.208 395.157 122.229 L 384.301 122.347 C 379.662 122.364 374.395 127.009 374.653 133.563 C 374.438 138.704 379.116 145.18 385.411 145.157 L 432.758 145.093 C 438.484 145.072 443.523 149.806 443.545 155.532 C 443.566 161.258 438.626 165.373 432.901 165.394 L 88.192 165.594 Z  M 323.742 153.224 L 96.154 154.03 Q 96.154 153.997 96.153 153.964 C 38.774 152.407 11.077 114.071 13.933 77.137 C 16.831 39.657 47.034 10.195 93.031 11.968 Q 113.026 11.761 307.16 11.272 C 311.682 12.164 315.047 15.602 315.069 21.374 C 315.094 28.171 310.458 31.766 304.733 31.787 L 287.885 31.812 C 282.134 31.833 277.969 36.953 277.987 41.766 C 278.005 46.633 282.496 51.704 287.401 51.685 L 319.664 51.853 C 325.389 51.832 330.055 56.463 330.076 62.189 C 330.098 67.915 325.466 72.58 319.74 72.602 L 312.288 72.614 C 306.866 72.634 302.675 77.871 302.693 82.684 C 302.709 87.008 305.885 91.9 310.546 91.883 L 318.987 92.178 C 324.713 92.157 329.379 96.788 329.4 102.514 C 329.421 108.24 324.79 112.905 319.064 112.926 L 293.711 112.946 C 289.56 113.295 285.214 118.011 285.457 123.269 C 285.7 128.527 289.968 132.763 294.809 132.638 L 322.023 132.612 C 327.748 132.59 332.414 137.222 332.435 142.947 C 332.455 148.114 328.685 152.418 323.742 153.224 Z " fill-rule="evenodd" fill="rgb(4,222,212)" >
        <animate dur="10s" repeatCount="indefinite" attributeName="d" values="M 437.502 50.273 L 466.008 50.13 C 473.189 50.104 479.041 55.912 479.067 63.093 L 479.067 63.093 C 479.094 70.274 473.285 76.126 466.104 76.153 L 437.598 76.295 C 430.417 76.322 424.565 70.513 424.539 63.332 L 424.539 63.332 C 424.512 56.151 430.321 50.299 437.502 50.273 Z  M 458.029 96.878 L 486.738 96.846 C 493.919 96.819 499.77 102.628 499.797 109.809 L 499.797 109.809 C 499.824 116.99 494.015 122.841 486.834 122.868 L 458.125 122.9 C 450.944 122.927 445.092 117.118 445.065 109.937 L 445.065 109.937 C 445.039 102.756 450.848 96.904 458.029 96.878 Z  M 419.065 0 L 450.839 0 C 458.02 -0.026 463.872 4.782 463.898 11.964 L 463.898 11.964 C 463.925 19.145 458.116 24.996 450.935 25.023 L 419.161 25.103 C 411.98 25.13 406.128 19.321 406.102 12.14 L 406.102 12.14 C 406.075 4.959 411.884 0.027 419.065 0 Z  M 88.192 165.594 C 39.289 163.953 -3.246 120.518 0.195 76.01 C 3.447 33.959 38.91 0.162 82.866 0 L 371.326 0 Q 373.732 -0.126 374.779 0.232 C 379.977 1.074 384.88 5.126 384.755 11.691 C 384.618 18.904 379.562 24.765 373.837 24.787 L 356.855 24.849 C 351.342 24.87 345.508 29.507 345.538 37.719 C 345.568 45.93 352.373 51.209 357.101 51.191 L 381.806 51.063 C 387.532 51.042 392.203 57.232 392.225 62.958 C 392.246 68.683 387.623 75.687 381.897 75.709 L 372.988 75.742 C 367.971 76.074 363.574 81.441 363.594 86.853 C 363.614 92.265 367.74 97.725 371.752 97.71 L 395.066 97.583 C 400.791 97.562 407.116 101.519 407.15 110.727 C 407.184 119.934 400.883 122.208 395.157 122.229 L 384.301 122.347 C 379.662 122.364 374.395 127.009 374.653 133.563 C 374.438 138.704 379.116 145.18 385.411 145.157 L 432.758 145.093 C 438.484 145.072 443.523 149.806 443.545 155.532 C 443.566 161.258 438.626 165.373 432.901 165.394 L 88.192 165.594 Z  M 323.742 153.224 L 96.154 154.03 Q 96.154 153.997 96.153 153.964 C 38.774 152.407 11.077 114.071 13.933 77.137 C 16.831 39.657 47.034 10.195 93.031 11.968 Q 113.026 11.761 307.16 11.272 C 311.682 12.164 315.047 15.602 315.069 21.374 C 315.094 28.171 310.458 31.766 304.733 31.787 L 287.885 31.812 C 282.134 31.833 277.969 36.953 277.987 41.766 C 278.005 46.633 282.496 51.704 287.401 51.685 L 319.664 51.853 C 325.389 51.832 330.055 56.463 330.076 62.189 C 330.098 67.915 325.466 72.58 319.74 72.602 L 312.288 72.614 C 306.866 72.634 302.675 77.871 302.693 82.684 C 302.709 87.008 305.885 91.9 310.546 91.883 L 318.987 92.178 C 324.713 92.157 329.379 96.788 329.4 102.514 C 329.421 108.24 324.79 112.905 319.064 112.926 L 293.711 112.946 C 289.56 113.295 285.214 118.011 285.457 123.269 C 285.7 128.527 289.968 132.763 294.809 132.638 L 322.023 132.612 C 327.748 132.59 332.414 137.222 332.435 142.947 C 332.455 148.114 328.685 152.418 323.742 153.224 Z;M 387.502 50.273 L 426.008 50.13 C 433.189 50.104 439.041 55.912 439.067 63.093 L 439.067 63.093 C 439.094 70.274 433.285 76.126 426.104 76.153 L 387.598 76.295 C 380.417 76.322 374.565 70.513 374.539 63.332 L 374.539 63.332 C 374.512 56.151 380.321 50.299 387.502 50.273 Z  M 429.029 96.878 L 437.738 96.846 C 444.919 96.819 450.77 102.628 450.797 109.809 L 450.797 109.809 C 450.824 116.99 445.015 122.841 437.834 122.868 L 429.125 122.9 C 421.944 122.927 416.092 117.118 416.065 109.937 L 416.065 109.937 C 416.039 102.756 421.848 96.904 429.029 96.878 Z  M 369.065 0 L 390.839 0 C 398.02 -0.026 403.872 4.782 403.898 11.964 L 403.898 11.964 C 403.925 19.145 398.116 24.996 390.935 25.023 L 369.161 25.103 C 361.98 25.13 356.128 19.321 356.102 12.14 L 356.102 12.14 C 356.075 4.959 361.884 0.027 369.065 0 Z  M 88.192 165.594 C 39.289 163.953 -3.246 120.518 0.195 76.01 C 3.447 33.959 38.91 0.162 82.866 0 L 331.326 0 Q 333.732 -0.126 334.779 0.232 C 339.977 1.074 344.88 5.126 344.755 11.691 C 344.618 18.904 339.562 24.765 333.837 24.787 L 316.855 24.849 C 311.342 24.87 305.508 29.507 305.538 37.719 C 305.568 45.93 312.373 51.209 317.101 51.191 L 351.806 51.063 C 357.532 51.042 362.203 57.232 362.225 62.958 C 362.246 68.683 357.623 75.687 351.897 75.709 L 342.988 75.742 C 337.971 76.074 333.574 81.441 333.594 86.853 C 333.614 92.265 337.74 97.725 341.752 97.71 L 376.066 97.583 C 381.791 97.562 388.116 101.519 388.15 110.727 C 388.184 119.934 381.883 122.208 376.157 122.229 L 344.301 122.347 C 339.662 122.364 334.395 127.009 334.653 133.563 C 334.438 138.704 339.116 145.18 345.411 145.157 L 362.758 145.093 C 368.484 145.072 373.523 149.806 373.545 155.532 C 373.566 161.258 368.626 165.373 362.901 165.394 L 88.192 165.594 Z  M 313.742 153.224 L 96.154 154.03 Q 96.154 153.997 96.153 153.964 C 38.774 152.407 11.077 114.071 13.933 77.137 C 16.831 39.657 47.034 10.195 93.031 11.968 Q 93.026 11.761 287.16 11.272 C 291.682 12.164 295.047 15.602 295.069 21.374 C 295.094 28.171 290.458 31.766 284.733 31.787 L 277.885 31.812 C 272.134 31.833 267.969 36.953 267.987 41.766 C 268.005 46.633 272.496 51.704 277.401 51.685 L 295.664 51.853 C 301.389 51.832 306.055 56.463 306.076 62.189 C 306.098 67.915 301.466 72.58 295.74 72.602 L 292.288 72.614 C 286.866 72.634 282.675 77.871 282.693 82.684 C 282.709 87.008 285.885 91.9 290.546 91.883 L 308.987 92.178 C 314.713 92.157 319.379 96.788 319.4 102.514 C 319.421 108.24 314.79 112.905 309.064 112.926 L 303.711 112.946 C 299.56 113.295 295.214 118.011 295.457 123.269 C 295.7 128.527 299.968 132.763 304.809 132.638 L 312.023 132.612 C 317.748 132.59 322.414 137.222 322.435 142.947 C 322.455 148.114 318.685 152.418 313.742 153.224 Z;M 437.502 50.273 L 466.008 50.13 C 473.189 50.104 479.041 55.912 479.067 63.093 L 479.067 63.093 C 479.094 70.274 473.285 76.126 466.104 76.153 L 437.598 76.295 C 430.417 76.322 424.565 70.513 424.539 63.332 L 424.539 63.332 C 424.512 56.151 430.321 50.299 437.502 50.273 Z  M 458.029 96.878 L 486.738 96.846 C 493.919 96.819 499.77 102.628 499.797 109.809 L 499.797 109.809 C 499.824 116.99 494.015 122.841 486.834 122.868 L 458.125 122.9 C 450.944 122.927 445.092 117.118 445.065 109.937 L 445.065 109.937 C 445.039 102.756 450.848 96.904 458.029 96.878 Z  M 419.065 0 L 450.839 0 C 458.02 -0.026 463.872 4.782 463.898 11.964 L 463.898 11.964 C 463.925 19.145 458.116 24.996 450.935 25.023 L 419.161 25.103 C 411.98 25.13 406.128 19.321 406.102 12.14 L 406.102 12.14 C 406.075 4.959 411.884 0.027 419.065 0 Z  M 88.192 165.594 C 39.289 163.953 -3.246 120.518 0.195 76.01 C 3.447 33.959 38.91 0.162 82.866 0 L 371.326 0 Q 373.732 -0.126 374.779 0.232 C 379.977 1.074 384.88 5.126 384.755 11.691 C 384.618 18.904 379.562 24.765 373.837 24.787 L 356.855 24.849 C 351.342 24.87 345.508 29.507 345.538 37.719 C 345.568 45.93 352.373 51.209 357.101 51.191 L 381.806 51.063 C 387.532 51.042 392.203 57.232 392.225 62.958 C 392.246 68.683 387.623 75.687 381.897 75.709 L 372.988 75.742 C 367.971 76.074 363.574 81.441 363.594 86.853 C 363.614 92.265 367.74 97.725 371.752 97.71 L 395.066 97.583 C 400.791 97.562 407.116 101.519 407.15 110.727 C 407.184 119.934 400.883 122.208 395.157 122.229 L 384.301 122.347 C 379.662 122.364 374.395 127.009 374.653 133.563 C 374.438 138.704 379.116 145.18 385.411 145.157 L 432.758 145.093 C 438.484 145.072 443.523 149.806 443.545 155.532 C 443.566 161.258 438.626 165.373 432.901 165.394 L 88.192 165.594 Z  M 323.742 153.224 L 96.154 154.03 Q 96.154 153.997 96.153 153.964 C 38.774 152.407 11.077 114.071 13.933 77.137 C 16.831 39.657 47.034 10.195 93.031 11.968 Q 113.026 11.761 307.16 11.272 C 311.682 12.164 315.047 15.602 315.069 21.374 C 315.094 28.171 310.458 31.766 304.733 31.787 L 287.885 31.812 C 282.134 31.833 277.969 36.953 277.987 41.766 C 278.005 46.633 282.496 51.704 287.401 51.685 L 319.664 51.853 C 325.389 51.832 330.055 56.463 330.076 62.189 C 330.098 67.915 325.466 72.58 319.74 72.602 L 312.288 72.614 C 306.866 72.634 302.675 77.871 302.693 82.684 C 302.709 87.008 305.885 91.9 310.546 91.883 L 318.987 92.178 C 324.713 92.157 329.379 96.788 329.4 102.514 C 329.421 108.24 324.79 112.905 319.064 112.926 L 293.711 112.946 C 289.56 113.295 285.214 118.011 285.457 123.269 C 285.7 128.527 289.968 132.763 294.809 132.638 L 322.023 132.612 C 327.748 132.59 332.414 137.222 332.435 142.947 C 332.455 148.114 328.685 152.418 323.742 153.224 Z;" fill="freeze" calcMode="spline" keySplines="0.4 0 0.2 1; 0.4 0 0.2 1"/>
      </path>
			<!--<path d=" M 387.502 50.273 L 426.008 50.13 C 433.189 50.104 439.041 55.912 439.067 63.093 L 439.067 63.093 C 439.094 70.274 433.285 76.126 426.104 76.153 L 387.598 76.295 C 380.417 76.322 374.565 70.513 374.539 63.332 L 374.539 63.332 C 374.512 56.151 380.321 50.299 387.502 50.273 Z  M 429.029 96.878 L 437.738 96.846 C 444.919 96.819 450.77 102.628 450.797 109.809 L 450.797 109.809 C 450.824 116.99 445.015 122.841 437.834 122.868 L 429.125 122.9 C 421.944 122.927 416.092 117.118 416.065 109.937 L 416.065 109.937 C 416.039 102.756 421.848 96.904 429.029 96.878 Z  M 369.065 0 L 390.839 0 C 398.02 -0.026 403.872 4.782 403.898 11.964 L 403.898 11.964 C 403.925 19.145 398.116 24.996 390.935 25.023 L 369.161 25.103 C 361.98 25.13 356.128 19.321 356.102 12.14 L 356.102 12.14 C 356.075 4.959 361.884 0.027 369.065 0 Z  M 88.192 165.594 C 39.289 163.953 -3.246 120.518 0.195 76.01 C 3.447 33.959 38.91 0.162 82.866 0 L 331.326 0 Q 333.732 -0.126 334.779 0.232 C 339.977 1.074 344.88 5.126 344.755 11.691 C 344.618 18.904 339.562 24.765 333.837 24.787 L 316.855 24.849 C 311.342 24.87 305.508 29.507 305.538 37.719 C 305.568 45.93 312.373 51.209 317.101 51.191 L 351.806 51.063 C 357.532 51.042 362.203 57.232 362.225 62.958 C 362.246 68.683 357.623 75.687 351.897 75.709 L 342.988 75.742 C 337.971 76.074 333.574 81.441 333.594 86.853 C 333.614 92.265 337.74 97.725 341.752 97.71 L 376.066 97.583 C 381.791 97.562 388.116 101.519 388.15 110.727 C 388.184 119.934 381.883 122.208 376.157 122.229 L 344.301 122.347 C 339.662 122.364 334.395 127.009 334.653 133.563 C 334.438 138.704 339.116 145.18 345.411 145.157 L 362.758 145.093 C 368.484 145.072 373.523 149.806 373.545 155.532 C 373.566 161.258 368.626 165.373 362.901 165.394 L 88.192 165.594 Z  M 313.742 153.224 L 96.154 154.03 Q 96.154 153.997 96.153 153.964 C 38.774 152.407 11.077 114.071 13.933 77.137 C 16.831 39.657 47.034 10.195 93.031 11.968 Q 93.026 11.761 287.16 11.272 C 291.682 12.164 295.047 15.602 295.069 21.374 C 295.094 28.171 290.458 31.766 284.733 31.787 L 277.885 31.812 C 272.134 31.833 267.969 36.953 267.987 41.766 C 268.005 46.633 272.496 51.704 277.401 51.685 L 295.664 51.853 C 301.389 51.832 306.055 56.463 306.076 62.189 C 306.098 67.915 301.466 72.58 295.74 72.602 L 292.288 72.614 C 286.866 72.634 282.675 77.871 282.693 82.684 C 282.709 87.008 285.885 91.9 290.546 91.883 L 308.987 92.178 C 314.713 92.157 319.379 96.788 319.4 102.514 C 319.421 108.24 314.79 112.905 309.064 112.926 L 303.711 112.946 C 299.56 113.295 295.214 118.011 295.457 123.269 C 295.7 128.527 299.968 132.763 304.809 132.638 L 312.023 132.612 C 317.748 132.59 322.414 137.222 322.435 142.947 C 322.455 148.114 318.685 152.418 313.742 153.224 Z " fill-rule="evenodd" fill="rgb(4,222,212)" />-->
		</g>
	</g>
</svg>
