<?xml version="1.0" standalone="no"?><!-- Generator: Gravit.io --><svg xmlns="http://www.w3.org/2000/svg" xmlns:xlink="http://www.w3.org/1999/xlink" style="isolation:isolate" viewBox="-80 537 2125 352" width="2125" height="352"><g><path d=" M -80 707.7 L 187 585.8 L 225.4 600.2 L 325.8 540.6 L 431.1 557.8 L 491.5 591.2 L 558.4 591.2 L 624.5 621 L 704.5 620.1 L 750.3 593 L 787.8 591.2 L 842.5 550.5 L 886.6 593 L 997.6 637.2 L 1071 630.7 L 1129.8 625.5 L 1191.5 593.3 L 1244.1 565.9 L 1335 586.1 L 1382.1 596.6 L 1470.6 592.3 L 1511.9 590.3 L 1600.1 632.7 L 1691.8 583.8 L 1755.6 549.8 L 1779.6 537 L 1833.7 577.5 L 1878.4 611.1 L 1907 610.1 L 2045 686.9 L 2045 889 L -80 889 L -80 707.7 Z " fill="rgb(247,43,73)"/><path d=" M -80 716.1 L 3.7 686.1 L 77 654.7 L 70 672 L 60.6 710.7 L 83 666.4 L 105 639.9 L 177.4 604.1 L 231.3 614.1 L 296.6 566.2 L 331 560.2 L 309 590.1 L 289 639.9 L 313.1 602.7 L 350 560.2 L 393 569.1 L 370 607.8 L 390 584.6 L 417.4 578.5 L 459.8 586.1 L 526 605.6 L 493 628.8 L 474 679.7 L 502 636.6 L 540 613.3 L 582 631 L 640.2 645.7 L 682.7 634.8 L 701.5 645.7 L 751 611.1 L 841 586.8 L 878 605.6 L 841 629.9 L 808 681.9 L 844 641 L 889 614.4 L 932.5 638.4 L 1010 657.6 L 1103 648.7 L 1128 669.8 L 1155.3 719.7 L 1141 663.1 L 1122 639.9 L 1177.4 624 L 1248 586.8 L 1290 597.8 L 1288 645.4 L 1296.6 701.7 L 1296.6 646.6 L 1321.1 658.3 L 1357 701.7 L 1330 652 L 1303 625.5 L 1309 602.3 L 1357 602.3 L 1432.1 624 L 1485.9 607.7 L 1541.5 625.8 L 1614.9 642 L 1647.6 651.1 L 1665.1 675.3 L 1648.4 724.2 L 1672.9 687.2 L 1687.6 709.8 L 1669 654.3 L 1641 625.5 L 1776 560.2 L 1854.9 615.9 L 1916.2 626.7 L 1986 669.8 L 2045 707.1 L 2045 889 L -80 889 L -80 716.1 Z " fill="rgb(86,0,41)"/><path d=" M -80 763.7 L -26.9 737.1 L 35.2 723 L 24.5 765.5 L 107.2 709.4 L 160.9 659.8 L 205 655.4 L 234 660.9 L 202.1 714.9 L 261.7 697.8 L 337.2 655.3 L 335 686.3 L 378 662 L 431.9 678.8 L 444.9 730.3 L 495.6 704.1 L 536 712.6 L 595.2 692.3 L 680.1 690.5 L 702.1 731.2 L 830.3 693.2 L 871.1 669.8 L 951.9 692.3 L 1073.5 714 L 1159.2 759.2 L 1197.6 713.1 L 1242.5 698.6 L 1275.2 758.3 L 1320.9 723.9 L 1370.7 749.2 L 1495.6 700.5 L 1580.5 730.3 L 1590.3 778.1 L 1657.2 758.3 L 1676.8 787.1 L 1790.3 680.6 L 1894.7 703.2 L 1985.4 763.7 L 2045 769.1 L 2045 889 L -80 889 L -80 763.7 Z " fill="rgb(66,11,34)"/></g></svg>