<?xml version="1.0" standalone="no"?><!-- Generator: Gravit.io --><svg xmlns="http://www.w3.org/2000/svg" xmlns:xlink="http://www.w3.org/1999/xlink" style="isolation:isolate" viewBox="0 0 916 73" width="916" height="73"><g id="MountainFront_Left"><path d=" M 884.079 50.93 L 798.811 19.089 L 741.447 9.975 L 635.744 0 L 526.169 10.49 L 441.642 11.006 L 362.746 17.116 L 294.936 22.232 L 228.183 17.116 L 180.434 17.447 L 104.53 6.221 L 0 32.428 L 0 73 L 916 73 L 884.079 50.93 Z " fill="rgb(249,37,113)"/><path d=" M 872.57 51.586 L 832.955 39.422 L 828.262 43.839 L 811.889 52.243 L 823.569 42.735 L 825.446 38.171 L 793.888 23.189 L 768.43 19.177 L 712.704 13.288 L 710.944 18.441 L 689.827 29.484 L 704.727 16.196 L 702.38 12 L 676.453 7.951 L 646.537 6.736 L 591.163 10.638 L 565.999 13.067 L 529.982 17.852 L 488.1 21.828 L 445.396 16.711 L 368.964 22.785 L 357.819 25.067 L 349.606 29.852 L 340.221 40.894 L 344.444 29.116 L 347.495 25.361 L 338.754 24.478 L 312.886 27.165 L 274.64 27.165 L 240.09 23.263 L 212.227 24.478 L 183.895 24.073 L 143.303 19.693 L 133.918 23.594 L 116.79 34.563 L 126.879 23.447 L 133.918 17.999 L 109.751 13.619 L 76.843 18.478 L 0 39.091 L 0 73 L 916 73 L 872.57 51.586 Z " fill="rgb(20,3,52)"/><path d=" M 853.738 57.823 L 798.933 57.238 L 790.964 46.334 L 757.343 38.097 L 707.073 31.913 L 679.21 37.508 L 651.934 25.03 L 596.442 22.159 L 520.597 32.428 L 431.377 29.889 L 380.402 36.846 L 345.911 45.864 L 322.037 52.011 L 325.732 38.502 L 311.009 36.257 L 236.688 37.361 L 201.024 35.962 L 136.91 39.385 L 98.312 50.354 L 89.572 33.054 L 0 51.606 L 0 73 L 916 73 L 853.738 57.823 Z " fill="rgb(12,1,42)"/></g></svg>