<?xml version="1.0" standalone="no"?><!-- Generator: Gravit.io --><svg xmlns="http://www.w3.org/2000/svg" xmlns:xlink="http://www.w3.org/1999/xlink" style="isolation:isolate" viewBox="0 0 841.968 243.651" width="841.968" height="243.651"><g id="MountainBack_Right"><path d=" M 841.272 243.651 L 841.968 81.972 L 735.196 17.326 L 692.655 61.758 L 656.578 100.695 L 594.322 51.092 L 585.772 60.813 L 543.349 45.65 L 508.169 0 L 416.983 60.119 L 407.182 51.456 L 343.216 106.563 L 298.797 87.654 L 269.741 103.862 L 232.255 66.512 L 223.636 77.317 L 191.729 41.641 L 148.227 98.339 L 123.289 100.726 L 88.553 103.113 L 53.622 138.279 L 0 243.651 L 841.272 243.651 Z " fill="rgb(230,58,134)"/><path d=" M 0 243.651 L 56.402 155.134 L 93.925 118.862 L 140.36 111.783 L 163.994 93.059 L 181.046 141.957 L 174.56 98.369 L 178.452 70.797 L 192.842 60.084 L 210.567 85.049 L 232.464 82.347 L 267.447 121.933 L 295.252 100.601 L 311.379 114.853 L 357.466 114.853 L 383.533 86.257 L 415.789 77.882 L 440.811 129.944 L 424.128 71.166 L 502.469 16.86 L 537.99 62.69 L 586.37 76.29 L 595.974 63.002 L 648.653 120.256 L 688.623 93.522 L 709.755 59.616 L 743.607 98.832 L 716.289 43.594 L 736.309 24.871 L 841.968 91.752 L 841.272 243.651 L 0 243.651 Z " fill="rgb(3,4,52)"/></g></svg>