<?xml version="1.0" standalone="no"?><!-- Generator: Gravit.io --><svg xmlns="http://www.w3.org/2000/svg" xmlns:xlink="http://www.w3.org/1999/xlink" style="isolation:isolate" viewBox="0 0 930 195.709" width="930" height="195.709"><g id="MountainSecond_Left"><path d=" M 0 68.669 L 142.163 0 L 217.825 65.824 L 249.258 75.261 L 331.444 36.202 L 417.641 47.474 L 468.494 62.84 L 521.846 69.363 L 575.954 88.892 L 641.441 96.969 L 678.932 79.209 L 709.629 78.03 L 758.822 60.649 L 804.661 86.6 L 846.127 116.269 L 874.724 142.374 L 930 195.709 L 0 195.709 L 0 68.669 Z " fill="rgb(255,56,129)"/><path d=" M 0.819 74.174 L 67.779 54.514 L 127.781 33.936 L 122.051 45.274 L 114.356 70.635 L 132.692 41.604 L 150.701 24.237 L 209.966 77.817 L 254.088 84.37 L 307.541 52.979 L 335.701 49.047 L 317.692 68.642 L 301.32 101.278 L 321.048 76.899 L 351.254 49.047 L 386.453 54.88 L 367.625 80.241 L 383.997 65.037 L 406.426 61.04 L 441.134 66.02 L 495.324 78.8 L 468.311 94.004 L 452.758 127.36 L 475.678 99.115 L 506.784 83.846 L 541.165 95.445 L 588.806 105.079 L 623.596 106.603 L 638.985 113.746 L 679.505 91.071 L 753.177 75.146 L 783.465 87.467 L 761.619 98.043 L 744.206 123.026 L 766.161 104.856 L 792.469 93.234 L 825.751 110.192 L 875.699 155.514 L 930 195.709 L 0.819 195.709 L 0.819 74.174 Z " fill="rgb(20,3,52)"/><path d=" M 0 105.368 L 42.73 87.936 L 93.564 78.696 L 84.805 106.548 L 152.502 69.783 L 196.46 114.319 L 232.559 111.436 L 256.298 115.04 L 230.185 150.428 L 278.973 139.222 L 340.776 111.37 L 338.975 131.686 L 374.174 115.761 L 418.295 126.771 L 428.937 160.521 L 470.439 143.351 L 503.51 148.921 L 551.97 135.618 L 621.468 143.105 L 672.265 166.46 L 744.419 144.875 L 777.817 129.54 L 843.958 144.285 L 872.563 176.418 L 930 195.709 L 0 195.709 L 0 105.368 Z " fill="rgb(12,1,42)"/></g></svg>