<?xml version="1.0" standalone="no"?><!-- Generator: Gravit.io --><svg xmlns="http://www.w3.org/2000/svg" xmlns:xlink="http://www.w3.org/1999/xlink" style="isolation:isolate" viewBox="0 0 880.239 141.474" width="880.239" height="141.474"><g id="MountainSecond_Right"><path d=" M 0 141.474 L 116.166 56.78 L 157.978 37.361 L 207.427 27.031 L 249.451 12.829 L 322.074 23.299 L 359.704 28.742 L 430.41 26.513 L 463.406 25.476 L 540.509 42.641 L 580.321 31.411 L 657.291 0 L 714.05 27.328 L 756.215 36.257 L 779.064 35.739 L 880.239 75.546 L 880.239 141.474 L 0 141.474 Z " fill="rgb(230,58,134)"/><path d=" M 0 141.474 L 136.721 55.746 L 156.695 66.683 L 178.506 92.547 L 167.081 63.21 L 151.901 51.185 L 196.162 42.944 L 252.567 23.662 L 286.122 29.364 L 284.524 54.036 L 291.395 83.217 L 291.395 54.658 L 310.969 60.722 L 339.651 83.217 L 318.079 57.456 L 296.508 43.721 L 301.302 31.696 L 339.651 31.696 L 399.651 42.944 L 442.633 34.495 L 487.054 43.876 L 545.696 52.273 L 571.821 56.99 L 585.802 69.533 L 572.46 94.879 L 592.034 75.701 L 603.778 87.415 L 588.918 58.649 L 566.548 43.721 L 590.697 35.01 L 654.415 12.025 L 737.44 38.745 L 786.415 44.343 L 842.18 66.683 L 880.239 86.016 L 880.239 141.474 L 0 141.474 Z " fill="rgb(20,3,52)"/><path d=" M 0 141.474 L 113.153 89.592 L 181.621 113.02 L 212.301 89.126 L 248.173 81.61 L 274.298 112.554 L 310.809 94.724 L 350.596 107.837 L 450.383 82.595 L 518.212 98.041 L 526.042 122.816 L 579.491 112.554 L 595.15 127.481 L 685.829 72.28 L 769.237 83.994 L 841.701 115.353 L 872.139 112.741 L 880.239 141.474 L 0 141.474 Z " fill="rgb(12,1,42)"/></g></svg>