<?xml version="1.0" standalone="no"?><!-- Generator: Gravit.io --><svg xmlns="http://www.w3.org/2000/svg" xmlns:xlink="http://www.w3.org/1999/xlink" style="isolation:isolate" viewBox="-135 658.9 2220 281.1" width="2220" height="281.1"><g><path d=" M 2085 747 L 1966.012 688.8 L 1870.979 702.3 L 1805.598 688.4 L 1723.294 702.3 L 1641.134 705.4 L 1550.368 678.8 L 1437.471 705.4 L 1326.526 673.8 L 1195.765 705.4 L 1100.009 671 L 980.385 712 L 872.551 695.8 L 786.558 686 L 656.231 658.9 L 521.13 687.4 L 416.912 688.8 L 319.636 705.4 L 236.03 719.3 L 153.726 705.4 L 94.854 706.3 L 1.267 675.8 L -135 747 L -135 940 L 990 940 L 2085 940 L 2085 747 Z " fill="rgb(221,25,62)"/><path d=" M 2085 767 L 2004.633 722.1 L 1964.132 708.9 L 1934.334 720.8 L 1942.941 735.6 L 1953.862 769 L 1934.334 736 L 1922.69 725.4 L 1871.196 720.3 L 1829.827 708.4 L 1795.473 705.1 L 1752.802 715.7 L 1707.093 732.7 L 1686.264 727 L 1667.46 727 L 1671.799 737 L 1673.246 761 L 1666.231 739.8 L 1660.734 729.4 L 1655.382 726.7 L 1637.952 720.8 L 1550.223 694.3 L 1497.572 708.2 L 1437.254 725.4 L 1400.658 719.7 L 1379.323 698 L 1329.636 691.3 L 1273.368 696.5 L 1240.75 706 L 1245.09 713 L 1250.876 723 L 1256.662 738 L 1256.662 767 L 1248.706 737 L 1242.197 727 L 1226.286 768 L 1232.072 721 L 1232.072 711 L 1155.842 725.4 L 1101.238 696.3 L 1062.69 710.9 L 982.627 729.7 L 899.383 720 L 893.597 732 L 888.534 759 L 887.811 729 L 890.125 716.6 L 851.215 717.9 L 819.827 711 L 751.119 695 L 748.95 709 L 722.913 739 L 741.283 702.9 L 738.39 691.5 L 706.423 680.5 L 669.538 677.2 L 601.265 687.8 L 570.238 694.4 L 525.831 707.4 L 474.192 718.2 L 421.54 704.3 L 327.303 720.8 L 313.561 727 L 303.436 740 L 291.864 770 L 297.071 738 L 300.832 727.8 L 290.056 725.4 L 258.161 732.7 L 211.006 732.7 L 168.407 722.1 L 134.054 725.4 L 99.121 724.3 L 49.073 712.4 L 37.502 723 L 16.383 752.8 L 28.823 722.6 L 37.502 707.8 L 7.704 695.9 L -32.869 709.1 L -135 765.1 L -135 940 L 990 940 L 2085 940 L 2085 767 Z " fill="rgb(84,13,37)"/><path d=" M 2085 798 L 1977.367 761.7 L 1966.591 808.7 L 1919.002 778.9 L 1838.506 752.6 L 1788.024 743.4 L 1692.339 766.8 L 1685.179 808 L 1628.912 763 L 1551.381 740.1 L 1437.254 765 L 1374.549 773 L 1276.695 748.7 L 1260.495 771.8 L 1221.006 779.7 L 1184.121 765.7 L 1149.623 783.5 L 1125.322 760.1 L 1096.248 803.4 L 1017.994 767 L 976.841 769.3 L 935.689 774 L 857.435 810.4 L 843.404 778.6 L 806.158 762.4 L 744.176 745.6 L 709.822 760.8 L 676.192 726.9 L 607.774 719.1 L 514.259 747 L 404.255 740.1 L 341.406 759 L 298.879 783.5 L 269.444 800.2 L 274 763.5 L 255.847 757.4 L 164.213 760.4 L 120.24 756.6 L 41.19 765.9 L -6.399 795.7 L -17.175 748.7 L -135 798.1 L -135 940 L 990 940 L 2085 940 L 2085 798 Z " fill="rgb(66,11,34)"/></g></svg>