<svg width="417" height="19" viewBox="0 0 417 19" fill="none" xmlns="http://www.w3.org/2000/svg">
<rect y="3" width="392" height="13" fill="url(#paint0_linear)"/>
<path fill-rule="evenodd" clip-rule="evenodd" d="M410 3L377 0L383.5 5.36957L363 9.91304L383.5 13.6304L377 19L410 16V15.9811C410.165 15.9936 410.332 16 410.5 16C414.09 16 417 13.0899 417 9.5C417 5.91015 414.09 3 410.5 3C410.332 3 410.165 3.00639 410 3.01894V3ZM399 10C399 11.1046 398.105 12 397 12C395.895 12 395 11.1046 395 10C395 8.89543 395.895 8 397 8C398.105 8 399 8.89543 399 10ZM405 10C405 11.1046 404.105 12 403 12C401.895 12 401 11.1046 401 10C401 8.89543 401.895 8 403 8C404.105 8 405 8.89543 405 10ZM409 12C410.105 12 411 11.1046 411 10C411 8.89543 410.105 8 409 8C407.895 8 407 8.89543 407 10C407 11.1046 407.895 12 409 12Z" fill="white"/>
<defs>
<linearGradient id="paint0_linear" x1="392" y1="9.49999" x2="9.50002" y2="9.49981" gradientUnits="userSpaceOnUse">
<stop stop-color="white"/>
<stop offset="0.703125" stop-color="#C4C4C4" stop-opacity="0"/>
</linearGradient>
</defs>
</svg>
