<svg xmlns="http://www.w3.org/2000/svg" style="isolation:isolate" viewBox="89 72 1814 342" width="1814" height="342"><path d="M808 111l-1-8-8-2 8-1 1-9 1 9 8 1-8 2-1 8zM101 327l-2-11-10-2 10-1 2-12 1 12 10 1-10 2-1 11zM1196 214v-7l-7-1 7-1v-7l1 7 7 1-7 1-1 7zM957 231l-1-5-5-1 5-1 1-5 1 5 5 1-5 1-1 5zM891 300l-1-10-8-1 8-1 1-10 1 10 9 1-9 1-1 10zM126 153l-4-1v-4l-1 4-4 1h4l1 5v-5h4zM1786 127l1-11 10-2-10-1-1-12-2 12-10 1 10 2 2 11zM1350 414l1-7 6-1-6-1-1-7-1 7-6 1 6 1 1 7zM1442 271l1-5 5-1-5-1-1-5v5l-5 1 5 1v5zM1655 380l1-10 9-1-9-1-1-10-1 10-8 1 8 1 1 10zM1560 163l4-1 1-4v4l4 1h-4v5l-1-5h-4z" fill="#FFCDE8"/><path d="M581 86a3 3 0 1 1 6 0 3 3 0 0 1-6 0z" fill="none"/><path d="M583 86a1 1 0 1 1 2 0 1 1 0 0 1-2 0z" fill="#EBEBEB"/><path d="M1371 103a6 6 0 1 1 13 0 6 6 0 0 1-13 0z" fill="none"/><path d="M1375 103a3 3 0 1 1 5 0 3 3 0 0 1-5 0z" fill="#EBEBEB"/><path d="M291 244a8 8 0 1 1 15 0 8 8 0 0 1-15 0z" fill="none"/><path d="M296 244a3 3 0 1 1 6 0 3 3 0 0 1-6 0z" fill="#EBEBEB"/><path d="M1177 77a5 5 0 1 1 9 0 5 5 0 0 1-9 0z" fill="none"/><path d="M1179 77a2 2 0 1 1 4 0 2 2 0 0 1-4 0z" fill="#EBEBEB"/><path d="M407 135a5 5 0 1 1 9 0 5 5 0 0 1-9 0z" fill="none"/><path d="M409 135a2 2 0 1 1 4 0 2 2 0 0 1-4 0z" fill="#EBEBEB"/><g><path d="M644 275c0-3 2-6 4-6 3 0 5 3 5 6 0 2-2 5-5 5-2 0-4-3-4-5z" fill="none"/><path d="M646 275c0-2 1-3 2-3s2 1 2 3l-2 2-2-2z" fill="#EBEBEB"/></g><g><path d="M1578 319a6 6 0 1 0-12 0 6 6 0 0 0 12 0z" fill="none"/><path d="M1574 319a2 2 0 1 0-5 0 2 2 0 0 0 5 0z" fill="#EBEBEB"/></g><g><path d="M1770 247c0-2-2-5-5-5-2 0-4 3-4 5 0 3 2 6 4 6 3 0 5-3 5-6z" fill="none"/><path d="M1767 247l-2-2-2 2c0 2 1 3 2 3s2-1 2-3z" fill="#EBEBEB"/></g><g><path d="M1903 355c0-3-2-6-5-6-2 0-5 3-5 6 0 2 3 5 5 5 3 0 5-3 5-5z" fill="none"/><path d="M1900 355c0-2-1-3-2-3s-2 1-2 3l2 2 2-2z" fill="#EBEBEB"/></g></svg>
