<?xml version="1.0" standalone="no"?><!-- Generator: Gravit.io --><svg xmlns="http://www.w3.org/2000/svg" xmlns:xlink="http://www.w3.org/1999/xlink" style="isolation:isolate" viewBox="866.06 318.173 190.84 190.84" width="190.84" height="190.84"><g><circle vector-effect="non-scaling-stroke" cx="961.4793773239282" cy="413.59246108274556" r="95.41983739338434" fill="rgb(255,51,51)"/><path d=" M 953.378 318.518 C 953.463 318.813 953.5 319.123 953.5 319.442 L 953.5 319.442 C 953.5 321.925 951.26 323.942 948.5 323.942 L 942.317 323.942 C 939.558 323.942 937.317 325.868 937.317 328.242 L 937.317 328.242 C 937.317 330.615 939.558 332.542 942.317 332.542 L 955.5 332.542 C 958.26 332.542 960.5 334.558 960.5 337.042 L 960.5 337.042 C 960.5 339.525 958.26 341.542 955.5 341.542 L 932.317 341.542 C 929.558 341.542 927.317 343.468 927.317 345.842 L 927.317 345.842 C 927.317 348.215 929.558 350.142 932.317 350.142 L 942.5 350.142 C 945.26 350.142 947.5 352.158 947.5 354.642 L 947.5 354.642 C 947.5 357.125 945.26 359.142 942.5 359.142 L 922.317 359.142 C 919.558 359.142 917.317 361.068 917.317 363.442 L 917.317 363.442 C 917.317 365.815 919.558 367.742 922.317 367.742 L 957.5 367.742 C 960.26 367.742 962.5 369.758 962.5 372.242 L 962.5 372.242 C 962.5 374.725 960.26 376.742 957.5 376.742 L 927.442 376.742 C 924.683 376.742 922.442 378.668 922.442 381.042 L 922.442 381.042 C 922.442 383.415 924.683 385.342 927.442 385.342 L 941.872 385.342 C 944.632 385.342 946.872 387.358 946.872 389.842 L 946.872 389.842 C 946.872 392.325 944.632 394.342 941.872 394.342 L 896.317 394.342 C 893.558 394.342 891.317 396.268 891.317 398.642 L 891.317 398.642 C 891.317 401.015 893.558 402.942 896.317 402.942 L 954.5 402.942 C 957.26 402.942 959.5 404.958 959.5 407.442 L 959.5 407.442 C 959.5 409.925 957.26 411.942 954.5 411.942 L 908.317 411.942 C 905.558 411.942 903.317 413.868 903.317 416.242 L 903.317 416.242 C 903.317 418.615 905.558 420.542 908.317 420.542 L 936.5 420.542 C 939.26 420.542 941.5 422.558 941.5 425.042 L 941.5 425.042 C 941.5 427.525 939.26 429.542 936.5 429.542 L 918.317 429.542 C 915.558 429.542 913.317 431.468 913.317 433.842 L 913.317 433.842 C 913.317 436.215 915.558 438.142 918.317 438.142 L 956.5 438.142 C 959.26 438.142 961.5 440.158 961.5 442.642 L 961.5 442.642 C 961.5 445.125 959.26 447.142 956.5 447.142 L 917.22 447.142 C 914.461 447.142 912.22 449.068 912.22 451.442 L 912.22 451.442 C 912.22 453.815 914.461 455.742 917.22 455.742 L 941.5 455.742 C 944.26 455.742 946.5 457.758 946.5 460.242 L 946.5 460.242 C 946.5 462.725 944.26 464.742 941.5 464.742 L 917.317 464.742 C 914.558 464.742 912.317 466.668 912.317 469.042 L 912.317 469.042 C 912.317 471.415 914.558 473.342 917.317 473.342 L 933.5 473.342 C 936.26 473.342 938.5 475.358 938.5 477.842 L 938.5 477.842 C 938.5 480.325 936.26 482.342 933.5 482.342 L 926.317 482.342 C 923.558 482.342 921.317 484.268 921.317 486.642 L 921.317 486.642 C 921.317 489.015 923.558 490.942 926.317 490.942 L 951.5 490.942 C 954.26 490.942 956.5 492.958 956.5 495.442 L 956.5 495.442 C 956.5 497.925 954.26 499.942 951.5 499.942 L 944.317 499.942 C 941.558 499.942 939.317 501.868 939.317 504.242 L 939.317 504.242 C 939.317 505.126 939.628 505.949 940.174 506.625 C 897.753 496.932 866.06 458.934 866.06 413.592 C 866.06 363.658 904.499 322.631 953.378 318.518 Z " fill="rgb(244,36,36)"/><path d=" M 993.09 323.542 L 986.025 323.542 C 983.265 323.542 981.025 325.558 981.025 328.042 L 981.025 328.042 C 981.025 330.525 983.265 332.542 986.025 332.542 L 1009.208 332.542 C 1011.967 332.542 1014.208 334.468 1014.208 336.842 L 1014.208 336.842 C 1014.208 339.215 1011.967 341.142 1009.208 341.142 L 999.025 341.142 C 996.265 341.142 994.025 343.158 994.025 345.642 L 994.025 345.642 C 994.025 348.125 996.265 350.142 999.025 350.142 L 1019.208 350.142 C 1021.967 350.142 1024.208 352.068 1024.208 354.442 L 1024.208 354.442 C 1024.208 356.815 1021.967 358.742 1019.208 358.742 L 1004.025 358.742 C 1001.265 358.742 999.025 360.758 999.025 363.242 L 999.025 363.242 C 999.025 365.725 1001.265 367.742 1004.025 367.742 L 1026.083 367.742 C 1028.842 367.742 1031.083 369.668 1031.083 372.042 L 1031.083 372.042 C 1031.083 374.415 1028.842 376.342 1026.083 376.342 L 1019.653 376.342 C 1016.893 376.342 1014.653 378.358 1014.653 380.842 L 1014.653 380.842 C 1014.653 383.325 1016.893 385.342 1019.653 385.342 L 1029.208 385.342 C 1031.967 385.342 1034.208 387.268 1034.208 389.642 L 1034.208 389.642 C 1034.208 392.015 1031.967 393.942 1029.208 393.942 L 1007.025 393.942 C 1004.265 393.942 1002.025 395.958 1002.025 398.442 L 1002.025 398.442 C 1002.025 400.925 1004.265 402.942 1007.025 402.942 L 1039.208 402.942 C 1041.967 402.942 1044.208 404.868 1044.208 407.242 L 1044.208 407.242 C 1044.208 409.615 1041.967 411.542 1039.208 411.542 L 999.025 411.542 C 996.265 411.542 994.025 413.558 994.025 416.042 L 994.025 416.042 C 994.025 418.525 996.265 420.542 999.025 420.542 L 1030.208 420.542 C 1032.967 420.542 1035.208 422.468 1035.208 424.842 L 1035.208 424.842 C 1035.208 427.215 1032.967 429.142 1030.208 429.142 L 1011.025 429.142 C 1008.265 429.142 1006.025 431.158 1006.025 433.642 L 1006.025 433.642 C 1006.025 436.125 1008.265 438.142 1011.025 438.142 L 1024.304 438.142 C 1027.064 438.142 1029.304 440.068 1029.304 442.442 L 1029.304 442.442 C 1029.304 444.815 1027.064 446.742 1024.304 446.742 L 1000.025 446.742 C 997.265 446.742 995.025 448.758 995.025 451.242 L 995.025 451.242 C 995.025 453.725 997.265 455.742 1000.025 455.742 L 1030.208 455.742 C 1032.967 455.742 1035.208 457.668 1035.208 460.042 L 1035.208 460.042 C 1035.208 462.415 1032.967 464.342 1030.208 464.342 L 1008.025 464.342 C 1005.265 464.342 1003.025 466.358 1003.025 468.842 L 1003.025 468.842 C 1003.025 471.325 1005.265 473.342 1008.025 473.342 L 1015.208 473.342 C 1017.967 473.342 1020.208 475.268 1020.208 477.642 L 1020.208 477.642 C 1020.208 480.015 1017.967 481.942 1015.208 481.942 L 990.025 481.942 C 987.265 481.942 985.025 483.958 985.025 486.442 L 985.025 486.442 C 985.025 488.925 987.265 490.942 990.025 490.942 L 997.208 490.942 C 999.967 490.942 1002.208 492.868 1002.208 495.242 L 1002.208 495.242 C 1002.208 497.615 999.967 499.542 997.208 499.542 L 990.025 499.542 C 987.265 499.542 985.025 501.558 985.025 504.042 L 985.025 504.042 C 985.025 504.721 985.192 505.365 985.503 505.937 C 1026.557 495.29 1056.899 457.957 1056.899 413.592 C 1056.899 372.006 1030.238 336.597 993.09 323.542 Z " fill="rgb(253,74,74)"/></g></svg>