<svg xmlns="http://www.w3.org/2000/svg" viewBox="0 0 161.83 161.83"><defs><style>.cls-1{fill:none;stroke:#000;stroke-miterlimit:10;stroke-width:2px;}</style></defs><title>ps-top-left-multi</title><g id="Слой_2" data-name="Слой 2"><g id="PS"><polygon class="cls-1" points="160.41 136.22 105.11 80.91 160.41 25.61 136.22 1.41 80.91 56.72 25.61 1.41 1.41 25.61 56.72 80.91 1.41 136.22 25.61 160.41 80.91 105.11 136.22 160.41 160.41 136.22"/><circle cx="10.85" cy="137.94" r="2.44"/><circle cx="17.37" cy="131.43" r="2.44"/><circle cx="23.88" cy="124.91" r="2.44"/><circle cx="30.4" cy="118.39" r="2.44"/><circle cx="36.92" cy="111.87" r="2.44"/><circle cx="43.44" cy="105.36" r="2.44"/><circle cx="49.96" cy="98.84" r="2.44"/><circle cx="56.47" cy="92.32" r="2.44"/><circle cx="62.99" cy="85.8" r="2.44"/><circle cx="85.8" cy="62.99" r="2.44"/><circle cx="92.32" cy="56.47" r="2.44"/><circle cx="98.84" cy="49.96" r="2.44"/><circle cx="105.36" cy="43.44" r="2.44"/><circle cx="111.87" cy="36.92" r="2.44"/><circle cx="118.39" cy="30.4" r="2.44"/><circle cx="124.91" cy="23.88" r="2.44"/><circle cx="131.43" cy="17.37" r="2.44"/><circle cx="137.94" cy="10.85" r="2.44"/><circle cx="76.03" cy="62.99" r="2.44"/><circle cx="69.51" cy="56.47" r="2.44"/><circle cx="62.99" cy="49.96" r="2.44"/><circle cx="56.47" cy="43.44" r="2.44"/><circle cx="49.96" cy="36.92" r="2.44"/><circle cx="43.44" cy="30.4" r="2.44"/><circle cx="36.92" cy="23.88" r="2.44"/><circle cx="30.4" cy="17.37" r="2.44"/><circle cx="23.88" cy="10.85" r="2.44"/><circle cx="152.61" cy="136.31" r="2.44"/><circle cx="146.09" cy="129.8" r="2.44"/><circle cx="139.57" cy="123.28" r="2.44"/><circle cx="133.06" cy="116.76" r="2.44"/><circle cx="126.54" cy="110.24" r="2.44"/><circle cx="120.02" cy="103.73" r="2.44"/><circle cx="113.5" cy="97.21" r="2.44"/><circle cx="106.98" cy="90.69" r="2.44"/><circle cx="100.47" cy="84.17" r="2.44"/></g></g></svg>