<?xml version="1.0" standalone="no"?><!-- Generator: Gravit.io --><svg xmlns="http://www.w3.org/2000/svg" xmlns:xlink="http://www.w3.org/1999/xlink" style="isolation:isolate" viewBox="1 1 455.582 466.615" width="455.582" height="466.615"><g style="isolation:isolate"><g style="isolation:isolate"><defs><filter id="c5pHJeI1hP0NRsM3TcKjysK6jeJp1DC3" x="-200%" y="-200%" width="400%" height="400%" filterUnits="objectBoundingBox" color-interpolation-filters="sRGB"><feGaussianBlur xmlns="http://www.w3.org/2000/svg" in="SourceGraphic" stdDeviation="12.880827188517085"/><feOffset xmlns="http://www.w3.org/2000/svg" dx="0" dy="0" result="pf_100_offsetBlur"/><feFlood xmlns="http://www.w3.org/2000/svg" flood-color="#00DED3" flood-opacity="0.7"/><feComposite xmlns="http://www.w3.org/2000/svg" in2="pf_100_offsetBlur" operator="in" result="pf_100_dropShadow"/><feBlend xmlns="http://www.w3.org/2000/svg" in="SourceGraphic" in2="pf_100_dropShadow" mode="normal"/></filter></defs><g filter="url(#c5pHJeI1hP0NRsM3TcKjysK6jeJp1DC3)"><path d=" M 211.909 385.441 L 211.909 385.441 C 217.899 385.375 222.934 390.185 223 396.175 L 223 417.642 C 223.066 423.633 218.152 428.549 212.162 428.615 L 212.162 428.615 C 206.172 428.681 201.066 423.871 201 417.881 L 201 396.413 C 200.934 390.423 205.919 385.506 211.909 385.441 Z  M 297.199 374.704 L 297.199 374.704 C 303.189 374.638 308.106 379.448 308.171 385.438 L 308.451 410.936 C 308.517 416.926 303.707 421.843 297.717 421.908 L 297.717 421.908 C 291.727 421.974 286.81 417.164 286.745 411.174 L 286.465 385.676 C 286.399 379.686 291.209 374.769 297.199 374.704 Z  M 254 375.175 L 254.206 375.175 C 260.196 375.11 265.112 379.919 265.178 385.91 L 265 396 C 265.066 401.99 259.99 407.073 254 407.138 L 254 407.138 C 248.01 407.204 244.066 401.99 244 396 L 244 386.148 C 243.934 380.158 248.01 375.241 254 375.175 Z  M 292.674 136.539 L 305.461 136.399 L 306.505 357.776 C 306.553 362.139 300.48 365.748 295.415 365.804 C 290.35 365.86 285.2 362.373 285.152 358.011 Q 285.101 353.378 285.048 348.561 C 284.995 343.745 278.761 340.913 274.924 340.955 C 271.087 340.997 263.996 343.492 264.055 348.792 Q 264.113 354.092 264.195 361.556 C 264.242 365.919 259.169 369.517 254.105 369.573 C 249.04 369.628 243.889 366.142 243.841 361.779 Q 243.768 355.089 243.727 351.33 C 243.685 347.57 238.377 343.782 233.339 343.837 C 228.301 343.893 223.166 347.165 223.205 350.695 Q 223.243 354.225 223.42 370.346 C 223.468 374.709 217.395 378.318 212.33 378.374 C 207.266 378.429 201.115 374.954 201.067 370.591 Q 200.981 358.538 200.942 355.005 C 200.903 351.472 194.515 348.157 190.678 348.199 C 186.841 348.241 180.861 351.451 180.904 355.362 Q 180.947 359.272 180.981 362.352 C 181.029 366.715 176.956 370.302 171.891 370.357 C 166.826 370.413 162.675 366.916 162.627 362.553 L 160.837 137.985 L 174.318 137.837 L 176.068 330.864 C 176.116 335.227 181.556 338.71 185.745 338.664 C 189.934 338.618 194.296 335.028 194.248 330.665 L 194.04 311.675 C 195.141 308.78 198.84 306.706 202.013 306.671 C 205.187 306.637 208.93 308.629 210.095 311.499 L 210.22 322.948 C 210.268 327.311 214.708 330.805 218.897 330.759 C 223.086 330.713 227.448 327.123 227.4 322.76 Q 227.309 314.482 227.272 311.109 C 227.235 307.735 231.718 304.693 235.908 304.647 C 240.098 304.601 243.902 308.39 243.939 311.786 L 244.021 319.235 C 244.068 323.598 248.508 327.092 252.697 327.046 C 256.886 327 261.248 323.41 261.2 319.047 L 261.049 305.282 C 262.15 302.387 265.849 300.313 269.023 300.278 C 272.197 300.244 275.94 302.236 277.104 305.106 L 277.307 323.555 C 277.355 327.918 281.794 331.412 285.983 331.366 C 290.172 331.32 294.534 327.73 294.486 323.367 L 292.674 136.539 Z " fill-rule="evenodd" fill="rgb(0,222,211)"/></g><path d=" M 181.371 140.259 L 182.781 190.818 C 182.813 193.737 184.314 195.091 186.145 195.071 C 187.975 195.051 189.446 193.665 189.414 190.745 L 189.254 176.126 C 189.645 173.954 190.892 172.362 192.386 172.346 C 193.761 172.331 194.957 173.655 195.48 175.553 L 195.799 204.676 C 195.831 207.595 197.333 208.949 199.163 208.929 C 200.994 208.909 202.465 207.523 202.433 204.603 L 202.188 182.257 C 202.62 180.195 203.834 178.705 205.279 178.689 C 206.654 178.674 207.849 179.999 208.373 181.896 L 208.878 228.019 C 208.91 230.938 210.423 233.292 212.253 233.272 C 214.084 233.252 215.544 230.865 215.512 227.946 L 215.143 194.328 C 215.534 192.156 216.782 190.564 218.275 190.548 C 219.65 190.532 220.846 191.857 221.369 193.754 L 221.864 238.877 C 221.896 241.796 223.398 243.15 225.228 243.13 C 227.059 243.11 228.53 241.723 228.498 238.804 L 228.085 201.182 C 228.5 199.073 229.729 197.54 231.194 197.524 C 232.569 197.509 233.765 198.834 234.288 200.731 L 234.684 236.854 C 234.716 239.773 236.218 241.127 238.048 241.107 C 239.879 241.087 241.35 239.701 241.318 236.781 L 240.73 183.164 C 241.121 180.993 242.368 179.401 243.862 179.384 C 245.237 179.369 246.432 180.694 246.956 182.591 L 247.33 216.714 C 247.362 219.634 248.863 220.988 250.694 220.967 C 252.525 220.947 253.996 219.561 253.964 216.641 L 253.686 191.295 C 254.118 189.233 255.332 187.744 256.776 187.728 C 258.151 187.713 259.347 189.037 259.87 190.935 L 260.091 211.058 C 260.123 213.978 261.624 215.332 263.455 215.312 C 265.285 215.292 266.757 213.905 266.725 210.986 L 266.4 181.367 C 266.791 179.196 268.038 177.604 269.532 177.587 C 270.907 177.572 272.102 178.897 272.626 180.794 L 272.857 201.918 C 272.889 204.837 274.391 206.191 276.221 206.171 C 278.052 206.151 279.523 204.765 279.491 201.845 L 278.804 139.19 L 181.371 140.259 Z  M 198.696 213.088 L 198.696 213.088 C 200.552 213.068 202.075 214.558 202.096 216.414 L 202.251 230.617 C 202.272 232.473 200.781 233.996 198.926 234.017 L 198.926 234.017 C 197.07 234.037 195.547 232.547 195.526 230.691 L 195.37 216.488 C 195.35 214.632 196.84 213.109 198.696 213.088 Z  M 238.694 257.186 L 238.694 257.186 C 240.55 257.166 242.073 258.656 242.093 260.512 L 242.195 269.778 C 242.215 271.634 240.725 273.157 238.869 273.178 L 238.869 273.178 C 237.013 273.198 235.49 271.708 235.47 269.852 L 235.368 260.586 C 235.348 258.73 236.838 257.207 238.694 257.186 Z  M 225.504 248.343 L 225.504 248.343 C 227.36 248.322 228.883 249.812 228.903 251.668 L 228.943 255.273 C 228.963 257.129 227.473 258.652 225.617 258.673 L 225.617 258.673 C 223.761 258.693 222.238 257.203 222.218 255.347 L 222.178 251.742 C 222.158 249.886 223.648 248.363 225.504 248.343 Z  M 251.387 253.013 L 251.387 253.013 C 253.243 252.992 254.766 254.483 254.787 256.338 L 254.871 264.042 C 254.891 265.898 253.401 267.421 251.545 267.442 L 251.545 267.442 C 249.69 267.462 248.166 265.972 248.146 264.116 L 248.062 256.412 C 248.041 254.556 249.531 253.033 251.387 253.013 Z  M 251.075 224.514 L 251.075 224.514 C 252.93 224.494 254.456 226.167 254.478 228.249 L 254.65 243.885 C 254.673 245.966 253.185 247.672 251.329 247.693 L 251.329 247.693 C 249.473 247.713 247.948 246.04 247.925 243.959 L 247.753 228.322 C 247.731 226.241 249.219 224.535 251.075 224.514 Z " fill-rule="evenodd" fill="rgb(255,28,118)"/></g><g style="isolation:isolate"><path d=" M 1.007 99.729 C 0.002 60.427 101.252 25.908 226.969 22.691 C 352.686 19.475 455.569 48.771 456.574 88.073 C 457.58 127.375 356.33 161.895 230.613 165.111 C 104.896 168.328 2.013 139.031 1.007 99.729 Z " fill="rgb(54,52,91)"/><path d=" M 179.739 149.463 C 94.042 144.668 20.951 127.623 20.212 98.713 C 19.819 83.388 39.546 72.365 68.697 60.764" fill="none" stroke-width="15" stroke="rgb(125,58,114)" stroke-linejoin="round" stroke-linecap="round" stroke-miterlimit="3"/></g><g style="isolation:isolate"><path d=" M 101.999 69.478 C 101.079 33.509 156.828 2.861 226.416 1.081 C 296.004 -0.699 353.247 27.057 354.168 63.026 C 331.242 87.831 301.894 100.059 232.307 101.839 C 162.719 103.619 123.742 86.582 101.999 69.478 Z " fill="rgb(36,31,57)"/><path d=" M 118.817 59.468 Q 137.161 28.309 177.383 22.693" fill="none" stroke-width="14" stroke="rgb(142,55,120)" stroke-linejoin="round" stroke-linecap="round" stroke-miterlimit="3"/></g></g></svg>
