<?xml version="1.0" standalone="no"?><!-- Generator: Gravit.io --><svg xmlns="http://www.w3.org/2000/svg" xmlns:xlink="http://www.w3.org/1999/xlink" style="isolation:isolate" viewBox="-23.99 711.98 893.03 489.176" width="893.03" height="489.176"><g style="isolation:isolate"><path d=" M 568.36 1040.911 C 635.685 955.664 621.133 831.795 535.885 764.471 C 450.638 697.147 326.769 711.698 259.445 796.946 C 192.12 882.194 206.672 1006.063 291.92 1073.387 C 377.167 1140.711 501.036 1126.159 568.36 1040.911 Z " fill="rgb(210,235,35)"/><path d=" M 518.676 752.337 C 588.145 796.305 625.213 881.237 604.605 965.462 C 580.704 1063.142 487.548 1125.847 390.132 1114.127 C 389.424 1112.003 389.361 1109.756 389.906 1107.526 C 391.687 1100.248 399.285 1095.874 411.237 1098.799 L 444.156 1106.854 C 453.283 1107.277 460.809 1103.842 462.245 1097.974 C 463.548 1092.65 459.478 1086.788 452.519 1082.88 L 447.533 1081.66 C 435.58 1078.735 430.874 1071.292 432.655 1064.014 C 434.436 1056.736 442.033 1052.363 453.985 1055.288 L 460.689 1056.928 C 467.755 1056.245 473.189 1053.044 474.387 1048.15 C 475.79 1042.415 470.959 1036.056 462.999 1032.186 L 431.328 1024.437 C 419.375 1021.512 415.557 1014.279 417.338 1007.001 C 419.119 999.724 425.828 995.14 437.78 998.065 L 449.444 1000.918 C 458.984 1001.625 465.199 997.74 466.683 991.675 C 468.136 985.738 464.683 979.551 456.218 975.731 L 454.722 975.365 C 452.488 974.818 450.384 974.085 448.449 973.205 L 420.034 966.253 C 408.082 963.328 403.376 955.885 405.157 948.607 C 406.937 941.329 414.535 936.956 426.487 939.88 L 484.865 954.165 C 495.059 955.371 501.161 951.239 502.723 944.857 C 504.255 938.596 501.021 932.22 491.732 928.523 L 478.849 925.371 C 466.897 922.446 462.191 915.003 463.972 907.725 C 465.752 900.447 473.35 896.074 485.302 898.999 L 518.221 907.053 C 527.348 907.476 532.889 904.51 534.324 898.642 C 535.627 893.318 533.543 886.988 526.584 883.079 L 521.598 881.859 C 509.646 878.935 506.715 871.911 508.496 864.633 C 510.277 857.356 516.098 852.562 528.051 855.487 L 534.755 857.127 C 541.821 856.445 544.8 851.726 545.998 846.832 C 547.401 841.097 545.024 836.255 537.064 832.386 L 505.393 824.636 C 493.441 821.712 489.622 814.478 491.403 807.2 C 493.184 799.923 499.893 795.339 511.846 798.264 L 523.509 801.118 C 533.049 801.825 538.167 798.618 539.651 792.553 C 541.104 786.615 538.749 779.75 530.283 775.93 L 528.787 775.564 C 516.835 772.64 513.905 765.616 515.686 758.339 C 516.251 756.03 517.222 753.971 518.676 752.337 Z " fill="rgb(190,220,20)"/><path d=" M 411.33 721.806 C 323.815 722.997 244.659 782.936 222.899 871.862 C 205.747 941.962 228.549 1012.552 276.728 1059.611 Q 276.554 1056.793 276.874 1055.486 C 278.358 1049.421 286.35 1045.956 295.89 1046.663 L 307.553 1049.516 C 319.505 1052.441 330.655 1048.907 332.436 1041.629 C 334.216 1034.352 325.958 1026.069 314.006 1023.144 L 282.335 1015.395 C 274.374 1011.525 269.543 1005.166 270.947 999.431 C 272.144 994.537 277.578 991.336 284.644 990.653 L 291.348 992.294 C 303.3 995.218 314.45 991.684 316.231 984.406 C 318.011 977.129 309.753 968.846 297.801 965.921 L 292.814 964.701 C 285.856 960.793 283.562 955.35 284.865 950.026 C 286.3 944.158 292.051 940.304 301.178 940.727 L 334.097 948.782 C 346.049 951.707 353.436 948.221 355.217 940.943 C 356.998 933.666 352.502 925.334 340.549 922.41 L 327.667 919.258 C 318.378 915.561 315.144 909.185 316.676 902.924 C 318.238 896.542 324.34 892.409 334.534 893.616 L 378.793 904.445 C 390.745 907.37 397.245 903.674 399.026 896.397 C 400.806 889.119 397.198 880.998 385.246 878.073 L 370.949 874.575 C 369.015 873.696 366.91 872.962 364.677 872.415 L 363.181 872.05 C 354.716 868.23 351.263 862.043 352.715 856.105 C 354.199 850.04 360.415 846.155 369.955 846.862 L 391.031 852.019 C 402.983 854.944 410.581 850.57 412.361 843.292 C 414.142 836.015 409.436 828.571 397.484 825.647 L 356.4 815.594 C 348.44 811.725 344.497 805.575 345.9 799.84 C 347.097 794.946 351.644 791.535 358.709 790.853 L 367.536 792.691 C 379.488 795.615 383.999 790.216 385.78 782.938 C 387.561 775.661 383.819 769.045 371.866 766.121 L 366.88 764.901 C 359.921 760.992 355.851 755.13 357.154 749.806 C 358.59 743.938 366.116 740.504 375.243 740.927 L 408.162 748.981 C 420.114 751.906 426.824 747.323 428.604 740.045 C 430.385 732.767 426.567 725.534 414.615 722.609 L 411.33 721.806 Z " fill="rgb(220,245,55)"/><path d=" M 305.505 754.646 L 196.593 714.162 C 182.586 708.955 167.994 713.388 164.029 724.055 C 160.064 734.722 168.217 747.61 182.225 752.817 L 191.485 756.259 C 199.932 762.585 204.058 772.109 201.006 780.318 C 197.802 788.937 187.661 793.486 176.495 792.168 L 83.963 757.773 C 69.956 752.566 55.364 756.999 51.399 767.666 C 47.434 778.333 55.587 791.221 69.595 796.427 L 102.459 808.644 C 112.253 814.898 117.29 825.263 114.004 834.103 C 110.8 842.722 100.658 847.271 89.493 845.953 L 9.577 816.248 C -4.431 811.041 -19.022 815.474 -22.987 826.141 C -26.953 836.808 -18.799 849.695 -4.792 854.902 L 110.874 897.897 C 120.187 904.192 124.893 914.259 121.69 922.877 C 118.22 932.213 106.61 936.774 94.375 934.276 L 94.347 934.352 L 33.863 911.869 C 19.856 906.662 5.264 911.095 1.299 921.762 C -2.666 932.429 5.487 945.317 19.495 950.524 L 687.887 1198.974 C 701.895 1204.181 716.486 1199.748 720.451 1189.081 C 724.416 1178.414 716.263 1165.526 702.256 1160.319 L 684.012 1153.538 L 684.04 1153.462 C 673.145 1147.362 667.333 1136.326 670.803 1126.99 C 674.006 1118.372 684.145 1113.823 695.309 1115.139 L 719.732 1124.217 C 733.74 1129.424 748.332 1124.991 752.297 1114.324 C 756.262 1103.657 748.108 1090.77 734.101 1085.563 L 725.234 1082.267 C 715.919 1075.972 711.211 1065.903 714.415 1057.284 C 717.701 1048.444 728.285 1043.885 739.786 1045.546 L 835.473 1081.115 C 849.481 1086.321 864.072 1081.888 868.037 1071.221 C 872.002 1060.554 863.849 1047.667 849.842 1042.46 L 729.638 997.779 C 720.322 991.483 715.614 981.415 718.818 972.795 C 722.208 963.676 733.365 959.113 745.284 961.233 C 758.042 964.413 770.448 959.868 774.056 950.162 C 778.021 939.495 769.868 926.608 755.86 921.401 L 603.015 864.586 C 615.703 908.659 613.146 957.329 592.258 1002.118 C 546.345 1100.564 438.713 1052.081 356.722 1018.085 C 274.731 984.088 189.6 934.189 235.512 835.742 C 251.482 801.5 276.076 774.009 305.505 754.646 Z " fill="rgb(113,121,69)"/></g></svg>